<?xml version="1.0" encoding="UTF-8"?><svg xmlns="http://www.w3.org/2000/svg" viewBox="0 0 32 32"><defs><style>.d{fill:#6981a8;}.e{fill:#ffe400;}.f{fill:#f5b200;}.g{fill:#3c4d66;}.h{fill:#e07f00;}.i{fill:#7c99c4;}</style></defs><g id="a"/><g id="b"/><g id="c"><g><g><path class="g" d="M8.94,26.22l-6.74,.49c-.15,.01-.29-.04-.41-.14-.11-.1-.18-.24-.19-.38-.01-.15,.04-.3,.14-.41,.1-.11,.24-.18,.38-.19l6.74-.49s.03,0,.04,0c.13,0,.26,.05,.37,.14,.11,.1,.18,.24,.19,.38,.02,.31-.21,.58-.52,.6Z"/><path d="M9.57,25.61c-.01-.18-.09-.34-.23-.46-.13-.12-.31-.17-.48-.16l-6.74,.49c-.18,.01-.34,.09-.46,.23-.12,.13-.17,.31-.16,.48,.01,.18,.09,.34,.23,.46,.12,.11,.27,.16,.43,.16,.02,0,.03,0,.05,0l6.75-.49c.37-.03,.64-.35,.61-.71Zm-7.78,.96c-.11-.1-.18-.24-.19-.38-.01-.15,.04-.3,.14-.41,.1-.11,.24-.18,.38-.19l6.74-.49s.03,0,.04,0c.13,0,.26,.05,.37,.14,.11,.1,.18,.24,.19,.38,.02,.31-.21,.58-.52,.6l-6.74,.49c-.15,.01-.29-.04-.41-.14Z"/></g><g><path d="M9.57,24.46c-.03-.37-.35-.64-.71-.62l-6.74,.49c-.18,.01-.34,.09-.46,.23-.12,.13-.17,.31-.16,.48,.01,.18,.09,.34,.23,.46,.12,.11,.27,.16,.43,.16,.02,0,.03,0,.05,0l6.75-.49c.18-.01,.34-.09,.45-.23,.12-.13,.17-.31,.16-.48Zm-7.78,.96c-.11-.1-.18-.23-.19-.38-.01-.15,.04-.29,.14-.41,.1-.11,.24-.18,.38-.19l6.74-.49s.03,0,.04,0c.29,0,.54,.23,.56,.52,.01,.15-.04,.29-.14,.41-.1,.11-.23,.18-.38,.19l-6.74,.49c-.15,.01-.29-.04-.41-.14Z"/><path class="g" d="M9.33,24.87c-.1,.11-.23,.18-.38,.19l-6.74,.49c-.15,.01-.29-.04-.41-.14-.11-.1-.18-.23-.19-.38-.01-.15,.04-.29,.14-.41,.1-.11,.24-.18,.38-.19l6.74-.49s.03,0,.04,0c.29,0,.54,.23,.56,.52,.01,.15-.04,.29-.14,.41Z"/></g><g><path d="M25.6,16.66v-.07L8.69,26.22l-.13,.07,.15,.02s2.41,.33,5.26,.35c.08,0,.15,0,.23,0,1.59,0,3.02-.1,4.25-.29,1.63-.26,2.92-.68,3.86-1.26,.94-.58,1.7-1.39,2.25-2.4,.44-.81,.76-1.74,.94-2.79,.3-1.77,.1-3.26,.1-3.27Zm-11.63,9.9c-2.44-.01-4.53-.26-5.1-.33l16.64-9.48c.04,.32,.15,1.63-.11,3.17-.28,1.62-1.05,3.82-3.14,5.11-2.1,1.3-5.67,1.55-8.29,1.54Z"/><path class="g" d="M25.4,19.91c-.28,1.62-1.05,3.82-3.14,5.11-2.1,1.3-5.67,1.55-8.29,1.54-2.44-.01-4.53-.26-5.1-.33l16.64-9.48c.04,.32,.15,1.63-.11,3.17Z"/></g><g><path class="d" d="M23.13,20.35c-.5,1.15-1.46,2.18-2.86,3.07-4.08,2.59-10.56,3.15-12.45,3.26-.1,0-.18-.04-.23-.13-.05-.08-.04-.18,0-.26l2.37-3.54v-.02l6.2-7.92s.08-.07,.13-.09l1.7-.45c.07-.02,.15,0,.21,.04l5.17,3.94c.05,.04,.09,.1,.1,.17,.03,.27,.06,1-.34,1.92Z"/><path d="M23.57,18.42c-.01-.1-.06-.18-.14-.24l-5.17-3.94c-.09-.07-.2-.09-.3-.06l-1.7,.45c-.07,.02-.14,.06-.19,.12l-6.19,7.92-.02,.02-2.37,3.54c-.07,.11-.08,.25-.01,.37,.06,.11,.18,.18,.3,.18h.02c1.9-.11,8.4-.67,12.5-3.27,1.42-.9,2.4-1.95,2.9-3.12,.41-.94,.38-1.69,.35-1.97ZM7.58,26.56c-.05-.08-.04-.18,0-.26l2.37-3.54v-.02l6.2-7.92s.08-.07,.13-.09l1.7-.45c.07-.02,.15,0,.21,.04l5.17,3.94c.05,.04,.09,.1,.1,.17,.03,.27,.06,1-.34,1.92-.5,1.15-1.46,2.18-2.86,3.07-4.08,2.59-10.56,3.15-12.45,3.26-.1,0-.18-.04-.23-.13Z"/></g><g><path class="i" d="M18.03,20.63c-1.3,.82-2.82,1.24-4.52,1.24-1.81,0-3.82-.46-5.97-1.38-1.79-.76-3.24-1.66-3.95-2.13-.08-.05-.11-.13-.1-.22,.01-.09,.07-.16,.16-.19l13.63-4.05s.04,0,.07,0c.04,0,.09,.01,.12,.04,.15,.1,.44,.29,.66,.5,.62,.6,1.06,1.3,1.31,2.08,.42,1.29,.16,3.13-1.41,4.12Z"/><path d="M19.53,16.47c-.25-.76-.67-1.47-1.34-2.12-.22-.22-.51-.41-.67-.51-.05-.03-.11-.05-.18-.05-.03,0-.06,0-.09,.01L3.62,17.85c-.27,.08-.32,.44-.09,.59,1.5,1,5.74,3.52,9.97,3.52,1.57,0,3.14-.35,4.58-1.25,1.61-1.02,1.88-2.91,1.45-4.24Zm-15.95,1.89c-.08-.05-.11-.13-.1-.22,.01-.09,.07-.16,.16-.19l13.63-4.05s.04,0,.07,0c.04,0,.09,.01,.12,.04,.15,.1,.44,.29,.66,.5,.62,.6,1.06,1.3,1.31,2.08,.42,1.29,.16,3.13-1.41,4.12-1.3,.82-2.82,1.24-4.52,1.24-1.81,0-3.82-.46-5.97-1.38-1.79-.76-3.24-1.66-3.95-2.13Z"/></g><g><path d="M25.89,16.39l-.21-1.51-2.1,1.06s-.36-.49-1.38-1.26c-.95-.72-1.78-1.23-2.04-1.4-.6-.39-1.63-.57-1.9-.58-.27,0-.75-.38-.75-.38l-1.47,1.88s1.71,.14,2.94,1.27c.86,.79,1.35,1.24,2.05,1.82,.61,.51,1.51,1.29,2.03,1.74,.11,.09,.24,.14,.38,.14,.15,0,.3-.06,.41-.17l1.79-1.81c.21-.21,.31-.52,.27-.81Zm-2.46,2.69c-.11,0-.22-.04-.31-.12-.49-.43-1.41-1.22-2.03-1.74-.7-.59-1.21-1.05-2.04-1.82-.65-.6-1.43-.92-1.97-1.08-.36-.11-.66-.17-.85-.19l1.3-1.66c.16,.11,.5,.33,.73,.34,.29,.01,1.29,.2,1.85,.56,.04,.03,.1,.07,.18,.12,.37,.24,1.07,.68,1.85,1.28,.99,.75,1.35,1.24,1.36,1.24l.05,.07,.08-.04,1.97-1,.19,1.37c.04,.27-.05,.54-.24,.73l-1.79,1.81c-.09,.09-.21,.14-.34,.14Z"/><path class="d" d="M25.55,17.13l-1.79,1.81c-.09,.09-.21,.14-.34,.14-.11,0-.22-.04-.31-.12-.49-.43-1.41-1.22-2.03-1.74-.7-.59-1.21-1.05-2.04-1.82-.65-.6-1.43-.92-1.97-1.08-.36-.11-.66-.17-.85-.19l1.3-1.66c.16,.11,.5,.33,.73,.34,.29,.01,1.29,.2,1.85,.56,.04,.03,.1,.07,.18,.12,.37,.24,1.07,.68,1.85,1.28,.99,.75,1.35,1.24,1.36,1.24l.05,.07,.08-.04,1.97-1,.19,1.37c.04,.27-.05,.54-.24,.73Z"/></g><g><path class="d" d="M26.67,14.33c-.27,.67-.61,1.1-.78,1.3-.08,.09-.17,.15-.27,.2l-1.69,.81c-.11,.05-.24,.08-.36,.08-.16,0-.32-.05-.45-.13-1-.64-3.42-2.2-4.33-2.84-.47-.33-.93-.68-1.24-.91-.21-.16-.33-.42-.33-.68,.01-.78,.14-2.28,.83-3.59,.85-1.62,2.28-2.44,4.25-2.44,1.78,0,3.09,.68,3.89,2.03,.53,.88,.83,2.05,.91,3.47,.05,.98-.09,1.89-.41,2.7Z"/><path d="M27.18,11.63c-.1-1.93-.72-5.6-4.9-5.6-4.69,0-5.15,4.6-5.18,6.13,0,.3,.13,.58,.37,.77,.31,.24,.77,.59,1.24,.91,.91,.64,3.34,2.2,4.34,2.85,.15,.1,.33,.15,.51,.15,.14,0,.28-.03,.41-.09l1.69-.81c.11-.05,.22-.13,.3-.23,.38-.43,1.34-1.76,1.22-4.08Zm-3.62,5.1c-.16,0-.32-.05-.45-.13-1-.64-3.42-2.2-4.33-2.84-.47-.33-.93-.68-1.24-.91-.21-.16-.33-.42-.33-.68,.01-.78,.14-2.28,.83-3.59,.85-1.62,2.28-2.44,4.25-2.44,1.78,0,3.09,.68,3.89,2.03,.53,.88,.83,2.05,.91,3.47,.05,.98-.09,1.89-.41,2.7-.27,.67-.61,1.1-.78,1.3-.08,.09-.17,.15-.27,.2l-1.69,.81c-.11,.05-.24,.08-.36,.08Z"/></g><path class="e" d="M19.71,10.37c.88-.5,3.53-1.86,5.92-1.61,.07,0,.13,.03,.19,.06,.35,.2,1.51,1.03,1.09,2.94-.39,1.74-1.52,2.79-2,3.17-.14,.11-.32,.14-.48,.08-.97-.36-4.4-1.77-4.96-4.09-.05-.21,.05-.43,.24-.54Z"/><path d="M25.03,8.83c.23,0,.45,.01,.66,.04,.07,.04,.43,.23,.73,.63,.2,.26,.34,.56,.41,.89,.09,.41,.08,.88-.03,1.38-.35,1.61-1.33,2.62-1.87,3.08-.1,.09-.23,.13-.37,.13-.07,0-.14-.01-.2-.04-1.07-.41-4.55-1.93-4.85-4.33,.19-.11,.84-.5,1.72-.88,.96-.42,2.4-.91,3.8-.91h0Zm0-.1c-2.75,0-5.63,1.85-5.63,1.85,.26,2.49,3.79,4.04,4.93,4.48,.08,.03,.16,.04,.24,.04,.16,0,.31-.05,.43-.16,.52-.44,1.54-1.48,1.91-3.14,.5-2.27-1.19-3.03-1.19-3.03-.23-.03-.46-.04-.69-.04h0Z"/><g><path d="M27.14,8.7c-.12-.66-.54-2.28-1.76-3.43-.06-.05-.13-.08-.21-.08-.02,0-.04,0-.07,0-.52,.11-2.21,.59-3.8,2.17-1.41,1.4-2.48,2.84-2.87,3.38-.09,.13-.07,.3,.04,.41l.09,.08c.06,.06,.14,.09,.22,.09,.06,0,.12-.02,.18-.05,.7-.48,3.01-2.04,4.37-2.59,1.19-.48,2.01-.68,2.35-.75,.02,0,.04,0,.06,0,.1,0,.19,.05,.25,.12,.31,.41,1.09,1.59,.98,2.86l.2-1.66c.02-.18,.02-.37-.02-.55Zm-1.09-.71c-.08-.1-.2-.17-.33-.17-.03,0-.06,0-.08,0-.38,.08-1.19,.28-2.37,.76-1.37,.56-3.71,2.13-4.39,2.6-.04,.02-.08,.04-.12,.04-.05,0-.11-.02-.15-.06l-.09-.08c-.08-.07-.09-.19-.03-.28,.4-.55,1.47-1.98,2.86-3.37,1.58-1.57,3.27-2.04,3.75-2.15,.01,0,.03,0,.04,0,.05,0,.1,.02,.14,.06,1.21,1.13,1.61,2.73,1.73,3.37,.03,.17,.04,.34,.02,.52l-.08,.66c-.2-.86-.68-1.57-.92-1.9Z"/><path class="d" d="M27.05,9.23l-.08,.66c-.2-.86-.68-1.57-.92-1.9-.08-.1-.2-.17-.33-.17-.03,0-.06,0-.08,0-.38,.08-1.19,.28-2.37,.76-1.37,.56-3.71,2.13-4.39,2.6-.04,.02-.08,.04-.12,.04-.05,0-.11-.02-.15-.06l-.09-.08c-.08-.07-.09-.19-.03-.28,.4-.55,1.47-1.98,2.86-3.37,1.58-1.57,3.27-2.04,3.75-2.15,.01,0,.03,0,.04,0,.05,0,.1,.02,.14,.06,1.21,1.13,1.61,2.73,1.73,3.37,.03,.17,.04,.34,.02,.52Z"/></g><circle cx="18.92" cy="10.82" r=".13"/><rect x="21.99" y="7.36" width=".33" height="1.49" transform="translate(-1.19 4.67) rotate(-11.73)"/><rect x="22.79" y="6.9" width=".33" height="1.49" transform="translate(-1.08 4.82) rotate(-11.73)"/><rect x="23.52" y="6.37" width=".37" height="1.79" transform="translate(-.98 4.97) rotate(-11.73)"/><rect x="24.39" y="5.98" width=".37" height="1.9" transform="translate(-.89 5.14) rotate(-11.73)"/><path d="M21.88,9.4s2.47-1.49,3.97-1.5c0,0,1.44,1.6,1.1,3.01,0,0-.1-1.42-1.13-2.09-.17-.11-.98-.08-1.24-.08-.53,0-2.7,.66-2.7,.66Z"/><polygon class="f" points="26.85 10.47 30.51 10.77 26.19 12.49 26.85 10.47"/><path class="h" d="M25.81,13.29c.12-.09,4.7-2.52,4.7-2.52l-4.31,1.72-.31,.53-.08,.27Z"/><path d="M25.44,11.19h-.28c-.02-.38-.33-.68-.72-.68s-.7,.3-.72,.68h-.28c0-.55,.45-1,1-1s1,.45,1,1Z"/></g></g></svg>