<?xml version="1.0" encoding="UTF-8"?><svg xmlns="http://www.w3.org/2000/svg" viewBox="0 0 640 640"><defs><style>.d{fill:#6981a8;}.e{fill:#ffe400;}.f{fill:#f5b200;}.g{fill:#3c4d66;}.h{fill:#e07f00;}.i{fill:#7c99c4;}</style></defs><g id="a"/><g id="b"/><g id="c"><g><g><path class="g" d="M181.05,521.29l-132.81,9.59c-2.95,.21-5.81-.74-8.05-2.67-2.24-1.94-3.58-4.63-3.8-7.58-.21-2.95,.74-5.81,2.67-8.05,1.94-2.24,4.63-3.59,7.58-3.8l132.81-9.59c.28-.02,.54-.03,.82-.03,2.66,0,5.2,.94,7.23,2.7,2.24,1.94,3.59,4.63,3.8,7.58,.44,6.1-4.16,11.41-10.25,11.85Z"/><path d="M193.3,509.3c-.25-3.49-1.85-6.67-4.49-8.96-2.64-2.29-6.02-3.4-9.51-3.15l-132.81,9.59c-3.49,.25-6.67,1.85-8.96,4.48-2.29,2.64-3.41,6.03-3.15,9.51,.25,3.49,1.85,6.67,4.49,8.96,2.4,2.07,5.4,3.19,8.55,3.19,.32,0,.64,0,.96-.03l132.82-9.58c7.2-.52,12.63-6.81,12.11-14Zm-153.12,18.9c-2.24-1.94-3.58-4.63-3.8-7.58-.21-2.95,.74-5.81,2.67-8.05,1.94-2.24,4.63-3.59,7.58-3.8l132.81-9.59c.28-.02,.54-.03,.82-.03,2.66,0,5.2,.94,7.23,2.7,2.24,1.94,3.59,4.63,3.8,7.58,.44,6.1-4.16,11.41-10.25,11.85l-132.81,9.59c-2.95,.21-5.81-.74-8.05-2.67Z"/></g><g><path d="M193.3,486.56c-.52-7.2-6.8-12.63-14-12.12l-132.81,9.59c-3.49,.25-6.67,1.85-8.96,4.49-2.29,2.64-3.41,6.02-3.15,9.51,.25,3.49,1.85,6.67,4.49,8.96,2.4,2.08,5.4,3.2,8.55,3.2,.32,0,.64-.01,.96-.03l132.82-9.59c3.48-.26,6.67-1.85,8.95-4.49,2.29-2.64,3.41-6.02,3.15-9.51Zm-153.12,18.9c-2.24-1.93-3.58-4.62-3.8-7.58-.21-2.95,.74-5.81,2.67-8.05,1.94-2.24,4.63-3.58,7.58-3.8l132.81-9.59c.28-.02,.54-.03,.81-.03,5.75,0,10.63,4.46,11.04,10.28,.21,2.95-.73,5.81-2.67,8.04-1.93,2.24-4.63,3.59-7.58,3.81l-132.81,9.58c-2.95,.21-5.81-.73-8.05-2.67Z"/><path class="g" d="M188.62,494.75c-1.93,2.24-4.63,3.59-7.58,3.81l-132.81,9.58c-2.95,.21-5.81-.73-8.05-2.67-2.24-1.93-3.58-4.62-3.8-7.58-.21-2.95,.74-5.81,2.67-8.05,1.94-2.24,4.63-3.58,7.58-3.8l132.81-9.59c.28-.02,.54-.03,.81-.03,5.75,0,10.63,4.46,11.04,10.28,.21,2.95-.73,5.81-2.67,8.04Z"/></g><g><path d="M509.02,332.93l-.21-1.47-332.77,189.73-2.56,1.46,2.93,.41c.46,.07,47.42,6.55,103.59,6.89,1.5,0,2.99,.01,4.48,.01,31.21,0,59.38-1.95,83.77-5.78,32.01-5.03,57.59-13.36,76.04-24.76,18.49-11.42,33.4-27.29,44.32-47.18,8.71-15.88,14.92-34.34,18.43-54.87,5.97-34.92,2.03-64.14,1.99-64.43Zm-228.99,195c-48-.28-89.24-5.07-100.39-6.48l327.57-186.76c.7,6.34,3.01,32.17-2.15,62.33-5.46,31.88-20.61,75.23-61.82,100.68-41.33,25.53-111.56,30.52-163.21,30.23Z"/><path class="g" d="M505.05,397.02c-5.46,31.88-20.61,75.23-61.82,100.68-41.33,25.53-111.56,30.52-163.21,30.23-48-.28-89.24-5.07-100.39-6.48l327.57-186.76c.7,6.34,3.01,32.17-2.15,62.33Z"/></g><g><path class="d" d="M460.38,405.75c-9.76,22.57-28.74,42.92-56.39,60.47-80.26,50.92-207.99,61.97-245.22,64.15-1.9,.1-3.6-.81-4.54-2.46-.95-1.66-.89-3.59,.17-5.18l46.59-69.68c.07-.1,.14-.2,.21-.3l121.89-155.98c.66-.85,1.59-1.46,2.62-1.73l33.44-8.79c1.48-.39,3.02-.08,4.23,.85l101.79,77.48c1.07,.81,1.76,2.05,1.91,3.38,.59,5.34,1.13,19.7-6.7,37.79Z"/><path d="M469.08,367.73c-.21-1.88-1.19-3.61-2.69-4.75l-101.78-77.49c-1.71-1.3-3.88-1.73-5.96-1.19l-33.44,8.79c-1.46,.38-2.77,1.25-3.7,2.44l-121.89,155.98c-.11,.13-.21,.28-.3,.42l-46.59,69.68c-1.47,2.21-1.57,5-.26,7.3,1.25,2.17,3.52,3.48,6,3.48,.14,0,.28,0,.42-.01,37.36-2.17,165.5-13.27,246.18-64.46,28.01-17.77,47.24-38.42,57.16-61.37,8.01-18.53,7.46-33.32,6.85-38.81Zm-314.86,160.16c-.95-1.66-.89-3.59,.17-5.18l46.59-69.68c.07-.1,.14-.2,.21-.3l121.89-155.98c.66-.85,1.59-1.46,2.62-1.73l33.44-8.79c1.48-.39,3.02-.08,4.23,.85l101.79,77.48c1.07,.81,1.76,2.05,1.91,3.38,.59,5.34,1.13,19.7-6.7,37.79-9.76,22.57-28.74,42.92-56.39,60.47-80.26,50.92-207.99,61.97-245.22,64.15-1.9,.1-3.6-.81-4.54-2.46Z"/></g><g><path class="i" d="M359.9,411.14c-25.6,16.17-55.55,24.37-89.05,24.37-35.66,0-75.22-9.14-117.57-27.17-35.3-15.03-63.84-32.68-77.72-41.87-1.5-.99-2.23-2.64-1.97-4.41,.27-1.78,1.45-3.15,3.18-3.66l268.45-79.77c.42-.13,.85-.19,1.28-.19,.85,0,1.68,.24,2.4,.69,2.99,1.87,8.65,5.65,12.96,9.84,12.15,11.85,20.83,25.64,25.8,40.95,8.26,25.45,3.09,61.72-27.76,81.2Z"/><path d="M389.58,329.31c-4.83-14.88-13.22-29-26.31-41.77-4.38-4.28-10.05-8.08-13.28-10.1-1.05-.66-2.26-1-3.48-1-.62,0-1.24,.09-1.85,.27L76.2,356.48c-5.3,1.57-6.36,8.63-1.75,11.68,29.62,19.6,113.03,69.36,196.4,69.36,30.97,0,61.92-6.86,90.12-24.68,31.66-20,37.11-57.29,28.6-83.53Zm-314.01,37.16c-1.5-.99-2.23-2.64-1.97-4.41,.27-1.78,1.45-3.15,3.18-3.66l268.45-79.77c.42-.13,.85-.19,1.28-.19,.85,0,1.68,.24,2.4,.69,2.99,1.87,8.65,5.65,12.96,9.84,12.15,11.85,20.83,25.64,25.8,40.95,8.26,25.45,3.09,61.72-27.76,81.2-25.6,16.17-55.55,24.37-89.05,24.37-35.66,0-75.22-9.14-117.57-27.17-35.3-15.03-63.84-32.68-77.72-41.87Z"/></g><g><path d="M514.72,327.59l-4.14-29.68-41.38,20.94s-7.04-9.56-27.12-24.82c-18.71-14.22-35.02-24.13-40.16-27.5-11.79-7.73-32.15-11.24-37.42-11.44-5.26-.19-14.81-7.4-14.81-7.4l-29,37s33.66,2.73,57.89,25c16.88,15.52,26.66,24.44,40.33,35.89,12.09,10.13,29.73,25.39,39.88,34.21,2.13,1.85,4.77,2.77,7.4,2.77,2.93,0,5.84-1.13,8.04-3.36l35.16-35.58c4.18-4.22,6.14-10.14,5.32-16.02Zm-48.52,52.96c-2.24,0-4.4-.81-6.08-2.28-9.65-8.38-27.68-23.98-39.91-34.23-13.85-11.61-23.82-20.72-40.26-35.83-12.79-11.76-28.17-18.07-38.81-21.29-7.14-2.17-13.09-3.26-16.66-3.79l25.6-32.67c3.11,2.17,9.81,6.48,14.35,6.65,5.67,.21,25.44,3.94,36.38,11.1,.88,.58,2.05,1.32,3.54,2.27,7.34,4.67,21.02,13.38,36.51,25.15,19.54,14.86,26.65,24.32,26.72,24.41l1.01,1.37,1.52-.77,38.87-19.65,3.75,26.88c.73,5.22-1.05,10.58-4.75,14.33l-35.16,35.59c-1.76,1.78-4.11,2.76-6.61,2.76Z"/><path class="d" d="M507.97,342.19l-35.16,35.59c-1.76,1.78-4.11,2.76-6.61,2.76-2.24,0-4.4-.81-6.08-2.28-9.65-8.38-27.68-23.98-39.91-34.23-13.85-11.61-23.82-20.72-40.26-35.83-12.79-11.76-28.17-18.07-38.81-21.29-7.14-2.17-13.09-3.26-16.66-3.79l25.6-32.67c3.11,2.17,9.81,6.48,14.35,6.65,5.67,.21,25.44,3.94,36.38,11.1,.88,.58,2.05,1.32,3.54,2.27,7.34,4.67,21.02,13.38,36.51,25.15,19.54,14.86,26.65,24.32,26.72,24.41l1.01,1.37,1.52-.77,38.87-19.65,3.75,26.88c.73,5.22-1.05,10.58-4.75,14.33Z"/></g><g><path class="d" d="M530.06,287.2c-5.33,13.19-11.92,21.72-15.37,25.64-1.48,1.68-3.26,3.03-5.28,3.99l-33.31,15.96c-2.23,1.06-4.71,1.62-7.17,1.62-3.18,0-6.28-.91-8.95-2.62-19.7-12.63-67.42-43.36-85.35-55.97-9.18-6.47-18.31-13.34-24.35-17.97-4.16-3.19-6.58-8.21-6.49-13.44,.27-15.29,2.75-44.81,16.37-70.68,16.76-31.84,44.91-48,83.64-48,35.03,0,60.79,13.42,76.55,39.89,10.37,17.41,16.39,40.42,17.87,68.39,1.03,19.34-1.72,37.24-8.17,53.19Z"/><path d="M540.24,233.9c-2.02-37.93-14.24-110.18-96.43-110.18-92.29,0-101.5,90.63-102.03,120.65-.1,5.89,2.6,11.48,7.28,15.07,6.05,4.64,15.2,11.53,24.41,18.02,17.96,12.64,65.68,43.36,85.42,56.02,3.04,1.95,6.53,2.94,10.04,2.94,2.74,0,5.48-.6,8.04-1.83l33.32-15.95c2.26-1.08,4.27-2.6,5.92-4.48,7.46-8.46,26.46-34.68,24.04-80.26Zm-71.32,100.51c-3.18,0-6.28-.91-8.95-2.62-19.7-12.63-67.42-43.36-85.35-55.97-9.18-6.47-18.31-13.34-24.35-17.97-4.16-3.19-6.58-8.21-6.49-13.44,.27-15.29,2.75-44.81,16.37-70.68,16.76-31.84,44.91-48,83.64-48,35.03,0,60.79,13.42,76.55,39.89,10.37,17.41,16.39,40.42,17.87,68.39,1.03,19.34-1.72,37.24-8.17,53.19-5.33,13.19-11.92,21.72-15.37,25.64-1.48,1.68-3.26,3.03-5.28,3.99l-33.31,15.96c-2.23,1.06-4.71,1.62-7.17,1.62Z"/></g><path class="e" d="M392.99,209.12c17.31-9.84,69.6-36.69,116.63-31.76,1.33,.14,2.61,.57,3.77,1.24,6.98,4.03,29.76,20.34,21.41,57.81-7.62,34.19-29.83,54.92-39.38,62.47-2.67,2.11-6.23,2.68-9.42,1.5-19.02-7.02-86.63-34.91-97.7-80.57-1.02-4.2,.92-8.56,4.67-10.69Z"/><path d="M497.86,178.77c4.46,0,8.83,.26,13,.76,1.42,.71,8.46,4.51,14.45,12.49,3.89,5.18,6.6,11.11,8.05,17.6,1.82,8.17,1.65,17.3-.52,27.13-6.95,31.61-26.11,51.6-36.91,60.7-2.03,1.71-4.59,2.65-7.21,2.65-1.36,0-2.69-.25-3.96-.73-21.01-8.07-89.53-37.91-95.55-85.25,3.65-2.24,16.46-9.86,33.81-17.38,18.9-8.2,47.23-17.97,74.83-17.97h0Zm0-2.01c-54.15,0-110.79,36.33-110.79,36.33,5.07,49.04,74.53,79.55,96.98,88.17,1.52,.58,3.1,.87,4.68,.87,3.06,0,6.08-1.08,8.51-3.12,10.29-8.67,30.41-29.19,37.58-61.81,9.81-44.61-23.37-59.62-23.37-59.62-4.49-.56-9.03-.82-13.58-.82h0Z"/><g><path d="M539.32,176.2c-2.44-13.07-10.59-44.88-34.71-67.46-1.15-1.07-2.65-1.66-4.2-1.66-.44,0-.87,.05-1.31,.15-10.21,2.24-43.52,11.58-74.89,42.79-27.7,27.56-48.93,55.92-56.59,66.57-1.79,2.49-1.48,5.93,.75,8.05l1.71,1.63c1.18,1.13,2.71,1.71,4.25,1.71,1.21,0,2.43-.36,3.48-1.08,13.81-9.5,59.21-40.12,86.04-51,23.46-9.51,39.48-13.38,46.34-14.77,.4-.08,.81-.12,1.21-.12,1.91,0,3.73,.89,4.91,2.46,6.07,8.1,21.54,31.4,19.37,56.28l3.97-32.72c.44-3.6,.33-7.25-.34-10.81Zm-21.39-13.95c-1.54-2.04-3.97-3.26-6.52-3.26-.54,0-1.09,.05-1.62,.16-7.45,1.51-23.42,5.44-46.69,14.88-27.07,10.98-72.99,41.96-86.43,51.2-.69,.47-1.5,.73-2.34,.73-1.07,0-2.09-.41-2.86-1.15l-1.71-1.63c-1.48-1.42-1.7-3.75-.5-5.42,7.78-10.82,28.86-38.95,56.37-66.31,31.15-30.99,64.44-40.18,73.9-42.25,.29-.07,.58-.1,.88-.1,1.05,0,2.05,.4,2.82,1.11,23.77,22.25,31.77,53.82,34.11,66.35,.62,3.36,.73,6.79,.32,10.21l-1.56,12.92c-3.95-16.9-13.32-30.99-18.16-37.44Z"/><path class="d" d="M537.66,186.77l-1.56,12.92c-3.95-16.9-13.32-30.99-18.16-37.44-1.54-2.04-3.97-3.26-6.52-3.26-.54,0-1.09,.05-1.62,.16-7.45,1.51-23.42,5.44-46.69,14.88-27.07,10.98-72.99,41.96-86.43,51.2-.69,.47-1.5,.73-2.34,.73-1.07,0-2.09-.41-2.86-1.15l-1.71-1.63c-1.48-1.42-1.7-3.75-.5-5.42,7.78-10.82,28.86-38.95,56.37-66.31,31.15-30.99,64.44-40.18,73.9-42.25,.29-.07,.58-.1,.88-.1,1.05,0,2.05,.4,2.82,1.11,23.77,22.25,31.77,53.82,34.11,66.35,.62,3.36,.73,6.79,.32,10.21Z"/></g><circle cx="377.47" cy="218.04" r="2.5"/><rect x="437.94" y="149.93" width="6.5" height="29.4" transform="translate(-24.25 93.09) rotate(-11.73)"/><rect x="453.66" y="140.89" width="6.5" height="29.4" transform="translate(-22.08 96.1) rotate(-11.73)"/><rect x="468.16" y="130.46" width="7.22" height="35.27" transform="translate(-20.25 98.96) rotate(-11.73)"/><rect x="485.29" y="122.6" width="7.22" height="37.47" transform="translate(-18.52 102.3) rotate(-11.73)"/><path d="M435.77,190.07s48.6-29.41,78.18-29.62c0,0,28.41,31.46,21.74,59.29,0,0-2-28.05-22.29-41.14-3.34-2.15-19.25-1.52-24.5-1.52-10.5,0-53.13,13-53.13,13Z"/><polygon class="f" points="533.61 211.07 605.66 217.01 520.72 250.86 533.61 211.07"/><path class="h" d="M513.14,266.66c2.32-1.84,92.51-49.65,92.51-49.65l-84.93,33.85-6.06,10.53-1.52,5.28Z"/><path d="M505.9,225.37h-5.57c-.39-7.44-6.55-13.36-14.1-13.36s-13.7,5.92-14.09,13.36h-5.57c0-10.86,8.8-19.66,19.66-19.66s19.67,8.8,19.67,19.66Z"/></g></g></svg>