<?xml version="1.0" encoding="UTF-8"?><svg xmlns="http://www.w3.org/2000/svg" viewBox="0 0 640 640"><defs><style>.d{fill:#6981a8;}.e{fill:#ffe400;}.f{fill:#f5b200;}.g{fill:#3c4d66;}.h{fill:#e07f00;}.i{fill:#7c99c4;}</style></defs><g id="a"/><g id="b"/><g id="c"><g><g><path d="M185.74,576.49c.76,1.25,1.14,3.72,1.14,7.42s-.76,6.83-2.28,9.39c-1.38,2.01-4.33,4.79-8.82,8.36-4.5,3.56-7.82,5.35-9.97,5.35-3.81,0-8.17-1.99-13.08-5.97-4.91-3.98-8.03-8.36-9.34-13.13l11.52-7.89c1.11,3.25,2.87,6.23,5.29,8.93,2.42,2.7,4.13,4.05,5.14,4.05s2.08-.33,3.22-.99c1.14-.66,2.02-1.33,2.65-2.02,.9-1.11,1.35-2.84,1.35-5.19s-.55-3.8-1.66-4.36c-1.39-1.18-4.07-2.73-8.05-4.67-3.98-1.94-7.67-4.03-11.06-6.28-3.39-2.25-5.55-4.45-6.49-6.59-.93-2.14-1.4-4.93-1.4-8.36s.76-6.42,2.28-8.98c1.38-2.01,4.32-4.79,8.82-8.36,4.5-3.56,7.82-5.35,9.97-5.35,3.8,0,8.16,1.99,13.08,5.97,4.91,3.98,8.03,8.36,9.34,13.13l-11.52,7.99c-1.11-3.25-2.87-6.24-5.29-8.98-2.42-2.73-4.14-4.1-5.14-4.1s-2.09,.31-3.27,.93c-1.18,.62-2.13,1.4-2.85,2.34-.73,.93-1.09,2.53-1.09,4.77s.69,3.75,2.08,4.52c1.11,.97,3.63,2.49,7.58,4.57,10.1,5.54,16.05,10.04,17.85,13.49Z"/><path d="M231.41,577.63v3.74h-25.12c0,4.15,.52,7.44,1.56,9.86,.35,.83,.97,1.68,1.87,2.54,.9,.87,1.83,1.3,2.8,1.3s2.18-.83,3.63-2.49c1.45-1.66,2.6-3.67,3.43-6.02l10.69,7.58c-1.87,3.46-4.72,6.47-8.56,9.03-3.84,2.56-6.94,3.84-9.29,3.84s-5.76-1.83-10.23-5.5c-4.46-3.67-7.18-6.52-8.15-8.56-.97-2.04-1.45-7.09-1.45-15.16s.48-13.11,1.45-15.16c.97-2.04,3.69-4.9,8.15-8.56,4.46-3.67,7.73-5.5,9.81-5.5s5.35,1.83,9.81,5.5c4.46,3.67,7.18,6.52,8.15,8.56,.97,2.04,1.45,7.04,1.45,15Zm-14.38-13.03c-.52-.93-1.32-1.85-2.39-2.75-1.07-.9-2.08-1.35-3.01-1.35s-1.99,.92-3.17,2.75c-1.18,1.83-1.9,4.59-2.18,8.25h11.83c-.21-3.67-.57-5.97-1.09-6.9Z"/><path d="M256.01,605.76h-13.7v-35.81c0-3.53-.42-6.26-1.25-8.2-.83-1.94-2.15-3.63-3.94-5.09l11.42-7.99c2.56,2.08,4.46,4.46,5.71,7.16,5.12-4.84,8.74-7.27,10.85-7.27s5.29,1.92,9.55,5.76,6.38,7.63,6.38,11.37v20.03c0,3.53,.42,6.26,1.25,8.2,.83,1.94,2.14,3.63,3.94,5.09l-11.42,7.99c-4.98-3.94-7.47-9.55-7.47-16.82v-23.05c0-1.18-.62-2.4-1.87-3.68-1.25-1.28-2.41-1.92-3.48-1.92s-3.06,1.45-5.97,4.36v39.86Z"/><path d="M308.23,560.71v22.94c0,3.25,1.11,6.23,3.32,8.93,2.21,2.7,5.26,4.84,9.13,6.44l-11.42,7.99c-4.15-1.94-7.65-4.62-10.48-8.05-2.84-3.43-4.26-7.04-4.26-10.85v-27.4h-5.19v-7.79l5.19-1.25c-.14-3.39-.55-6.07-1.25-8.05-.69-1.97-2.01-3.89-3.94-5.76l11.42-7.99c4.98,3.94,7.47,9.55,7.47,16.82v3.11h11.63v10.9h-11.63Z"/><path d="M334.54,528.11c.73,0,2.4,1.13,5.03,3.37,2.63,2.25,3.94,3.77,3.94,4.57s-1.33,2.34-4,4.62c-2.66,2.28-4.36,3.43-5.09,3.43s-2.41-1.12-5.03-3.37c-2.63-2.25-3.94-3.77-3.94-4.57s1.33-2.34,4-4.62c2.66-2.28,4.36-3.43,5.09-3.43Zm-7.11,21.7h13.7v35.92c0,3.53,.42,6.26,1.25,8.2,.83,1.94,2.14,3.63,3.94,5.09l-11.42,7.99c-4.98-3.94-7.47-9.55-7.47-16.82v-40.38Z"/><path d="M366.77,605.76h-13.7v-35.81c0-3.53-.42-6.26-1.25-8.2-.83-1.94-2.15-3.63-3.94-5.09l11.42-7.99c2.56,2.08,4.46,4.46,5.71,7.16,5.12-4.84,8.74-7.27,10.85-7.27s5.29,1.92,9.55,5.76c4.26,3.84,6.38,7.63,6.38,11.37v20.03c0,3.53,.42,6.26,1.25,8.2,.83,1.94,2.14,3.63,3.94,5.09l-11.42,7.99c-4.98-3.94-7.47-9.55-7.47-16.82v-23.05c0-1.18-.62-2.4-1.87-3.68-1.25-1.28-2.41-1.92-3.48-1.92s-3.06,1.45-5.97,4.36v39.86Z"/><path d="M440.47,577.63v3.74h-25.12c0,4.15,.52,7.44,1.56,9.86,.35,.83,.97,1.68,1.87,2.54,.9,.87,1.83,1.3,2.8,1.3s2.18-.83,3.63-2.49c1.45-1.66,2.6-3.67,3.43-6.02l10.69,7.58c-1.87,3.46-4.72,6.47-8.56,9.03-3.84,2.56-6.94,3.84-9.29,3.84s-5.76-1.83-10.23-5.5c-4.46-3.67-7.18-6.52-8.15-8.56-.97-2.04-1.45-7.09-1.45-15.16s.48-13.11,1.45-15.16c.97-2.04,3.69-4.9,8.15-8.56,4.46-3.67,7.73-5.5,9.81-5.5s5.35,1.83,9.81,5.5c4.46,3.67,7.18,6.52,8.15,8.56,.97,2.04,1.45,7.04,1.45,15Zm-14.38-13.03c-.52-.93-1.32-1.85-2.39-2.75-1.07-.9-2.08-1.35-3.01-1.35s-1.99,.92-3.17,2.75c-1.18,1.83-1.9,4.59-2.18,8.25h11.83c-.21-3.67-.57-5.97-1.09-6.9Z"/><path d="M448.26,527.91h13.7v57.82c0,3.53,.42,6.26,1.25,8.2,.83,1.94,2.14,3.63,3.94,5.09l-11.42,7.99c-4.98-3.94-7.47-9.55-7.47-16.82v-62.28Z"/></g><g><g><path class="g" d="M176.13,461.86l-137.51,9.92c-3.06,.22-6.01-.76-8.33-2.77-2.31-2.01-3.71-4.8-3.93-7.85-.22-3.06,.76-6.02,2.77-8.33,2.01-2.32,4.8-3.72,7.85-3.93l137.51-9.92c.28-.02,.56-.03,.85-.03,2.75,0,5.39,.97,7.49,2.79,2.31,2.01,3.72,4.8,3.93,7.85,.46,6.31-4.3,11.82-10.61,12.27Z"/><path d="M188.82,449.45c-.26-3.61-1.91-6.91-4.65-9.28-2.74-2.37-6.23-3.52-9.84-3.27l-137.51,9.92c-3.61,.26-6.91,1.91-9.28,4.64-2.37,2.74-3.53,6.24-3.27,9.85,.26,3.61,1.91,6.91,4.65,9.28,2.48,2.15,5.59,3.3,8.85,3.3,.33,0,.67,0,.99-.03l137.52-9.92c7.45-.54,13.08-7.05,12.54-14.5Zm-158.54,19.57c-2.31-2.01-3.71-4.8-3.93-7.85-.22-3.06,.76-6.02,2.77-8.33,2.01-2.32,4.8-3.72,7.85-3.93l137.51-9.92c.28-.02,.56-.03,.85-.03,2.75,0,5.39,.97,7.49,2.79,2.31,2.01,3.72,4.8,3.93,7.85,.46,6.31-4.3,11.82-10.61,12.27l-137.51,9.92c-3.06,.22-6.01-.76-8.33-2.77Z"/></g><g><path d="M188.82,425.9c-.54-7.46-7.04-13.08-14.49-12.55l-137.51,9.92c-3.61,.26-6.91,1.91-9.28,4.65-2.37,2.74-3.53,6.23-3.27,9.84,.26,3.61,1.91,6.91,4.65,9.28,2.48,2.15,5.59,3.31,8.85,3.31,.33,0,.67-.01,.99-.03l137.52-9.92c3.61-.26,6.9-1.91,9.27-4.65,2.37-2.74,3.53-6.23,3.27-9.85Zm-158.54,19.57c-2.31-2-3.71-4.79-3.93-7.85-.22-3.06,.76-6.01,2.77-8.33,2.01-2.31,4.8-3.71,7.85-3.93l137.51-9.92c.28-.02,.56-.03,.83-.03,5.96,0,11,4.61,11.43,10.65,.22,3.05-.76,6.01-2.77,8.33-2,2.32-4.79,3.72-7.85,3.94l-137.51,9.92c-3.06,.22-6.01-.76-8.33-2.77Z"/><path class="g" d="M183.98,434.38c-2,2.32-4.79,3.72-7.85,3.94l-137.51,9.92c-3.06,.22-6.01-.76-8.33-2.77-2.31-2-3.71-4.79-3.93-7.85-.22-3.06,.76-6.01,2.77-8.33,2.01-2.31,4.8-3.71,7.85-3.93l137.51-9.92c.28-.02,.56-.03,.83-.03,5.96,0,11,4.61,11.43,10.65,.22,3.05-.76,6.01-2.77,8.33Z"/></g><g><path d="M515.71,266.83l-.22-1.52L170.94,461.75l-2.65,1.52,3.03,.42c.48,.07,49.1,6.78,107.26,7.13,1.56,0,3.1,.01,4.64,.01,32.32,0,61.48-2.02,86.74-5.98,33.14-5.21,59.63-13.83,78.73-25.64,19.15-11.82,34.58-28.26,45.89-48.85,9.02-16.44,15.44-35.56,19.08-56.81,6.19-36.16,2.1-66.41,2.06-66.72Zm-237.09,201.9c-49.69-.29-92.4-5.25-103.95-6.71l339.16-193.37c.73,6.57,3.11,33.31-2.22,64.53-5.65,33.01-21.34,77.89-64,104.25-42.79,26.43-115.51,31.6-168.98,31.3Z"/><path class="g" d="M511.6,333.2c-5.65,33.01-21.34,77.89-64,104.25-42.79,26.43-115.51,31.6-168.98,31.3-49.69-.29-92.4-5.25-103.95-6.71l339.16-193.37c.73,6.57,3.11,33.31-2.22,64.53Z"/></g><g><path class="d" d="M465.35,342.23c-10.11,23.37-29.75,44.44-58.39,62.61-83.1,52.72-215.35,64.16-253.9,66.42-1.97,.1-3.73-.84-4.71-2.55-.99-1.72-.92-3.72,.18-5.37l48.24-72.14c.07-.1,.15-.21,.22-.31l126.2-161.5c.68-.88,1.65-1.51,2.72-1.79l34.62-9.1c1.53-.4,3.13-.08,4.38,.88l105.39,80.23c1.11,.84,1.82,2.12,1.97,3.5,.61,5.53,1.17,20.4-6.94,39.13Z"/><path d="M474.36,302.87c-.22-1.95-1.23-3.74-2.79-4.92l-105.39-80.23c-1.77-1.35-4.02-1.79-6.17-1.23l-34.62,9.1c-1.51,.4-2.87,1.29-3.83,2.52l-126.2,161.5c-.11,.14-.22,.28-.31,.43l-48.24,72.14c-1.52,2.29-1.63,5.18-.26,7.56,1.29,2.25,3.64,3.61,6.21,3.61,.15,0,.28,0,.43-.01,38.68-2.25,171.36-13.74,254.89-66.74,29-18.4,48.91-39.78,59.18-63.54,8.3-19.19,7.73-34.49,7.1-40.19ZM148.36,468.7c-.99-1.72-.92-3.72,.18-5.37l48.24-72.14c.07-.1,.15-.21,.22-.31l126.2-161.5c.68-.88,1.65-1.51,2.72-1.79l34.62-9.1c1.53-.4,3.13-.08,4.38,.88l105.39,80.23c1.11,.84,1.82,2.12,1.97,3.5,.61,5.53,1.17,20.4-6.94,39.13-10.11,23.37-29.75,44.44-58.39,62.61-83.1,52.72-215.35,64.16-253.9,66.42-1.97,.1-3.73-.84-4.71-2.55Z"/></g><g><path class="i" d="M361.31,347.81c-26.5,16.74-57.52,25.23-92.2,25.23-36.93,0-77.88-9.47-121.73-28.13-36.54-15.56-66.1-33.83-80.47-43.35-1.55-1.02-2.31-2.73-2.04-4.57,.28-1.84,1.5-3.26,3.29-3.79l277.95-82.59c.43-.13,.88-.19,1.33-.19,.88,0,1.74,.25,2.49,.72,3.1,1.94,8.96,5.85,13.41,10.19,12.58,12.27,21.57,26.54,26.71,42.4,8.55,26.35,3.2,63.9-28.74,84.08Z"/><path d="M392.04,263.09c-5-15.41-13.69-30.03-27.24-43.25-4.54-4.43-10.4-8.36-13.75-10.46-1.09-.68-2.34-1.04-3.6-1.04-.64,0-1.29,.09-1.92,.28L67.57,291.22c-5.49,1.63-6.59,8.93-1.81,12.09,30.67,20.29,117.03,71.82,203.35,71.82,32.06,0,64.11-7.1,93.31-25.55,32.78-20.71,38.43-59.31,29.61-86.49Zm-325.13,38.48c-1.55-1.02-2.31-2.73-2.04-4.57,.28-1.84,1.5-3.26,3.29-3.79l277.95-82.59c.43-.13,.88-.19,1.33-.19,.88,0,1.74,.25,2.49,.72,3.1,1.94,8.96,5.85,13.41,10.19,12.58,12.27,21.57,26.54,26.71,42.4,8.55,26.35,3.2,63.9-28.74,84.08-26.5,16.74-57.52,25.23-92.2,25.23-36.93,0-77.88-9.47-121.73-28.13-36.54-15.56-66.1-33.83-80.47-43.35Z"/></g><g><path d="M521.61,261.3l-4.29-30.73-42.84,21.68s-7.29-9.9-28.08-25.7c-19.38-14.73-36.26-24.99-41.58-28.47-12.21-8-33.29-11.64-38.74-11.84-5.44-.2-15.33-7.66-15.33-7.66l-30.03,38.31s34.86,2.82,59.94,25.88c17.47,16.07,27.61,25.31,41.76,37.16,12.52,10.49,30.78,26.29,41.29,35.42,2.21,1.92,4.94,2.87,7.67,2.87,3.03,0,6.05-1.17,8.33-3.48l36.41-36.84c4.32-4.37,6.35-10.5,5.5-16.59Zm-50.24,54.83c-2.31,0-4.55-.84-6.3-2.36-9.99-8.68-28.66-24.83-41.33-35.45-14.34-12.02-24.67-21.46-41.68-37.1-13.25-12.18-29.16-18.71-40.18-22.05-7.4-2.24-13.55-3.38-17.25-3.92l26.51-33.83c3.22,2.25,10.16,6.71,14.85,6.88,5.87,.22,26.34,4.08,37.67,11.5,.91,.6,2.13,1.37,3.66,2.35,7.6,4.84,21.76,13.85,37.8,26.04,20.23,15.38,27.59,25.18,27.66,25.28l1.05,1.42,1.57-.8,40.24-20.35,3.89,27.84c.76,5.41-1.08,10.95-4.92,14.84l-36.41,36.85c-1.82,1.84-4.25,2.86-6.85,2.86Z"/><path class="d" d="M514.63,276.43l-36.41,36.85c-1.82,1.84-4.25,2.86-6.85,2.86-2.31,0-4.55-.84-6.3-2.36-9.99-8.68-28.66-24.83-41.33-35.45-14.34-12.02-24.67-21.46-41.68-37.1-13.25-12.18-29.16-18.71-40.18-22.05-7.4-2.24-13.55-3.38-17.25-3.92l26.51-33.83c3.22,2.25,10.16,6.71,14.85,6.88,5.87,.22,26.34,4.08,37.67,11.5,.91,.6,2.13,1.37,3.66,2.35,7.6,4.84,21.76,13.85,37.8,26.04,20.23,15.38,27.59,25.18,27.66,25.28l1.05,1.42,1.57-.8,40.24-20.35,3.89,27.84c.76,5.41-1.08,10.95-4.92,14.84Z"/></g><g><path class="d" d="M537.49,219.49c-5.52,13.66-12.34,22.49-15.92,26.54-1.54,1.74-3.38,3.13-5.47,4.14l-34.49,16.52c-2.31,1.1-4.87,1.68-7.42,1.68-3.29,0-6.5-.94-9.26-2.72-20.39-13.07-69.81-44.89-88.37-57.95-9.51-6.7-18.96-13.82-25.21-18.61-4.3-3.3-6.81-8.5-6.72-13.91,.28-15.83,2.84-46.39,16.95-73.18,17.35-32.97,46.5-49.69,86.6-49.69,36.27,0,62.94,13.89,79.26,41.3,10.74,18.03,16.97,41.85,18.5,70.81,1.06,20.02-1.78,38.56-8.46,55.07Z"/><path d="M548.04,164.3c-2.09-39.27-14.74-114.08-99.85-114.08-95.55,0-105.09,93.84-105.64,124.92-.1,6.1,2.69,11.88,7.53,15.6,6.27,4.8,15.74,11.94,25.28,18.65,18.59,13.09,68.01,44.9,88.44,58.01,3.15,2.02,6.76,3.04,10.39,3.04,2.84,0,5.68-.63,8.32-1.89l34.49-16.51c2.34-1.12,4.42-2.7,6.13-4.64,7.73-8.76,27.4-35.9,24.9-83.1Zm-73.84,104.07c-3.29,0-6.5-.94-9.26-2.72-20.39-13.07-69.81-44.89-88.37-57.95-9.51-6.7-18.96-13.82-25.21-18.61-4.3-3.3-6.81-8.5-6.72-13.91,.28-15.83,2.84-46.39,16.95-73.18,17.35-32.97,46.5-49.69,86.6-49.69,36.27,0,62.94,13.89,79.26,41.3,10.74,18.03,16.97,41.85,18.5,70.81,1.06,20.02-1.78,38.56-8.46,55.07-5.52,13.66-12.34,22.49-15.92,26.54-1.54,1.74-3.38,3.13-5.47,4.14l-34.49,16.52c-2.31,1.1-4.87,1.68-7.42,1.68Z"/></g><path class="e" d="M395.58,138.64c17.93-10.18,72.06-37.99,120.76-32.89,1.38,.14,2.71,.59,3.91,1.29,7.22,4.17,30.81,21.06,22.17,59.86-7.89,35.4-30.89,56.86-40.77,64.68-2.76,2.18-6.45,2.77-9.75,1.55-19.7-7.27-89.69-36.15-101.15-83.42-1.05-4.35,.95-8.86,4.84-11.07Z"/><path d="M504.16,107.22c4.62,0,9.15,.26,13.46,.79,1.47,.74,8.76,4.67,14.96,12.94,4.03,5.37,6.83,11.5,8.33,18.23,1.88,8.46,1.7,17.91-.53,28.09-7.2,32.73-27.03,53.43-38.22,62.85-2.1,1.77-4.75,2.74-7.46,2.74-1.4,0-2.78-.26-4.1-.76-21.75-8.35-92.7-39.25-98.94-88.27,3.78-2.32,17.04-10.21,35.01-18,19.57-8.49,48.9-18.61,77.48-18.61h0Zm0-2.09c-56.07,0-114.71,37.62-114.71,37.62,5.25,50.78,77.17,82.36,100.41,91.29,1.57,.6,3.21,.9,4.84,.9,3.17,0,6.29-1.11,8.81-3.23,10.66-8.98,31.48-30.23,38.91-64,10.15-46.19-24.2-61.73-24.2-61.73-4.65-.58-9.35-.84-14.06-.84h0Z"/><g><path d="M547.08,104.56c-2.52-13.53-10.96-46.47-35.94-69.85-1.19-1.11-2.75-1.72-4.34-1.72-.45,0-.9,.05-1.36,.15-10.57,2.32-45.06,11.99-77.54,44.3-28.68,28.54-50.66,57.9-58.59,68.93-1.86,2.58-1.53,6.14,.77,8.33l1.77,1.69c1.22,1.17,2.81,1.77,4.4,1.77,1.25,0,2.52-.37,3.61-1.12,14.3-9.83,61.31-41.54,89.09-52.8,24.29-9.84,40.88-13.85,47.98-15.29,.42-.08,.84-.13,1.26-.13,1.97,0,3.86,.92,5.08,2.54,6.29,8.38,22.3,32.51,20.05,58.27l4.11-33.88c.45-3.73,.34-7.51-.35-11.2Zm-22.14-14.44c-1.59-2.11-4.11-3.38-6.75-3.38-.56,0-1.13,.06-1.67,.17-7.71,1.56-24.25,5.64-48.35,15.4-28.03,11.36-75.58,43.45-89.48,53.02-.72,.49-1.56,.75-2.43,.75-1.11,0-2.16-.42-2.96-1.19l-1.77-1.69c-1.54-1.47-1.76-3.88-.51-5.61,8.06-11.2,29.88-40.33,58.36-68.66,32.25-32.08,66.72-41.6,76.52-43.74,.3-.07,.6-.1,.91-.1,1.09,0,2.13,.41,2.92,1.15,24.61,23.03,32.9,55.72,35.31,68.7,.65,3.48,.76,7.03,.33,10.57l-1.62,13.38c-4.09-17.5-13.79-32.09-18.8-38.77Z"/><path class="d" d="M545.36,115.51l-1.62,13.38c-4.09-17.5-13.79-32.09-18.8-38.77-1.59-2.11-4.11-3.38-6.75-3.38-.56,0-1.13,.06-1.67,.17-7.71,1.56-24.25,5.64-48.35,15.4-28.03,11.36-75.58,43.45-89.48,53.02-.72,.49-1.56,.75-2.43,.75-1.11,0-2.16-.42-2.96-1.19l-1.77-1.69c-1.54-1.47-1.76-3.88-.51-5.61,8.06-11.2,29.88-40.33,58.36-68.66,32.25-32.08,66.72-41.6,76.52-43.74,.3-.07,.6-.1,.91-.1,1.09,0,2.13,.41,2.92,1.15,24.61,23.03,32.9,55.72,35.31,68.7,.65,3.48,.76,7.03,.33,10.57Z"/></g><circle cx="379.51" cy="147.88" r="2.59"/><rect x="442.12" y="77.36" width="6.73" height="30.44" transform="translate(-9.52 92.46) rotate(-11.73)"/><rect x="458.39" y="68" width="6.73" height="30.44" transform="translate(-7.28 95.57) rotate(-11.73)"/><rect x="473.41" y="57.2" width="7.47" height="36.52" transform="translate(-5.38 98.54) rotate(-11.73)"/><rect x="491.14" y="49.06" width="7.47" height="38.8" transform="translate(-3.59 102) rotate(-11.73)"/><path d="M439.87,118.92s50.32-30.45,80.94-30.67c0,0,29.41,32.57,22.51,61.39,0,0-2.07-29.05-23.08-42.6-3.46-2.23-19.94-1.58-25.37-1.58-10.87,0-55.01,13.46-55.01,13.46Z"/><polygon class="f" points="541.17 140.67 615.76 146.81 527.83 181.86 541.17 140.67"/><path class="h" d="M519.98,198.23c2.4-1.9,95.79-51.41,95.79-51.41l-87.94,35.04-6.28,10.91-1.57,5.46Z"/><path d="M512.48,155.47h-5.77c-.4-7.71-6.78-13.84-14.6-13.84s-14.19,6.13-14.59,13.84h-5.77c0-11.25,9.11-20.36,20.36-20.36s20.36,9.11,20.36,20.36Z"/></g></g></g></svg>