<?xml version="1.0" encoding="UTF-8"?><svg xmlns="http://www.w3.org/2000/svg" viewBox="0 0 640 640"><defs><style>.d{fill:#6981a8;}.e{fill:#ffe400;}.f{fill:#f5b200;}.g{fill:#3c4d66;}.h{fill:#dfecf7;}.i{fill:#e07f00;}.j{fill:#7c99c4;}</style></defs><g id="a"/><g id="b"/><g id="c"><rect class="g" width="640" height="640"/><circle class="h" cx="313.66" cy="239.75" r="208.63"/><g><g><path class="g" d="M231.15,340.46l-78.86,5.69c-1.75,.12-3.45-.44-4.78-1.59-1.33-1.15-2.13-2.75-2.26-4.5-.13-1.75,.44-3.45,1.59-4.78,1.15-1.33,2.75-2.13,4.5-2.26l78.86-5.69c.16-.01,.32-.02,.49-.02,1.58,0,3.09,.56,4.29,1.6,1.33,1.15,2.13,2.75,2.26,4.5,.26,3.62-2.47,6.78-6.09,7.03Z"/><path d="M238.43,333.34c-.15-2.07-1.1-3.96-2.67-5.32-1.57-1.36-3.58-2.02-5.64-1.87l-78.86,5.69c-2.07,.15-3.96,1.1-5.32,2.66-1.36,1.57-2.02,3.58-1.87,5.65,.15,2.07,1.1,3.96,2.67,5.32,1.42,1.23,3.21,1.89,5.07,1.89,.19,0,.38,0,.57-.02l78.86-5.69c4.27-.31,7.5-4.04,7.19-8.31Zm-90.92,11.22c-1.33-1.15-2.13-2.75-2.26-4.5-.13-1.75,.44-3.45,1.59-4.78,1.15-1.33,2.75-2.13,4.5-2.26l78.86-5.69c.16-.01,.32-.02,.49-.02,1.58,0,3.09,.56,4.29,1.6,1.33,1.15,2.13,2.75,2.26,4.5,.26,3.62-2.47,6.78-6.09,7.03l-78.86,5.69c-1.75,.12-3.45-.44-4.78-1.59Z"/></g><g><path d="M238.43,319.84c-.31-4.28-4.04-7.5-8.31-7.19l-78.86,5.69c-2.07,.15-3.96,1.1-5.32,2.67-1.36,1.57-2.02,3.58-1.87,5.64,.15,2.07,1.1,3.96,2.67,5.32,1.42,1.24,3.21,1.9,5.07,1.9,.19,0,.38,0,.57-.02l78.86-5.69c2.07-.15,3.96-1.1,5.32-2.67,1.36-1.57,2.02-3.58,1.87-5.65Zm-90.92,11.22c-1.33-1.15-2.13-2.75-2.26-4.5-.13-1.75,.44-3.45,1.59-4.78,1.15-1.33,2.75-2.13,4.5-2.26l78.86-5.69c.16-.01,.32-.02,.48-.02,3.42,0,6.31,2.65,6.56,6.11,.13,1.75-.43,3.45-1.59,4.78-1.15,1.33-2.75,2.13-4.5,2.26l-78.86,5.69c-1.75,.13-3.45-.43-4.78-1.59Z"/><path class="g" d="M235.65,324.7c-1.15,1.33-2.75,2.13-4.5,2.26l-78.86,5.69c-1.75,.13-3.45-.43-4.78-1.59-1.33-1.15-2.13-2.75-2.26-4.5-.13-1.75,.44-3.45,1.59-4.78,1.15-1.33,2.75-2.13,4.5-2.26l78.86-5.69c.16-.01,.32-.02,.48-.02,3.42,0,6.31,2.65,6.56,6.11,.13,1.75-.43,3.45-1.59,4.78Z"/></g><g><path d="M425.9,228.61l-.12-.87-197.59,112.66-1.52,.87,1.74,.24c.28,.04,28.16,3.89,61.51,4.09,.89,0,1.78,0,2.66,0,18.53,0,35.26-1.16,49.74-3.43,19-2.99,34.19-7.93,45.15-14.7,10.98-6.78,19.83-16.21,26.31-28.02,5.17-9.43,8.86-20.39,10.94-32.58,3.55-20.73,1.2-38.08,1.18-38.26Zm-135.97,115.79c-28.5-.17-52.99-3.01-59.61-3.85l194.5-110.89c.42,3.77,1.79,19.1-1.28,37.01-3.24,18.93-12.24,44.67-36.71,59.78-24.54,15.16-66.24,18.12-96.91,17.95Z"/><path class="g" d="M423.54,266.67c-3.24,18.93-12.24,44.67-36.71,59.78-24.54,15.16-66.24,18.12-96.91,17.95-28.5-.17-52.99-3.01-59.61-3.85l194.5-110.89c.42,3.77,1.79,19.1-1.28,37.01Z"/></g><g><path class="d" d="M397.02,271.85c-5.8,13.4-17.06,25.49-33.49,35.9-47.66,30.24-123.5,36.8-145.61,38.09-1.13,.06-2.14-.48-2.7-1.46-.57-.98-.53-2.13,.1-3.08l27.67-41.37c.04-.06,.08-.12,.13-.18l72.37-92.61c.39-.5,.94-.86,1.56-1.03l19.85-5.22c.88-.23,1.79-.05,2.51,.5l60.44,46.01c.63,.48,1.04,1.22,1.13,2,.35,3.17,.67,11.7-3.98,22.44Z"/><path d="M402.18,249.28c-.12-1.12-.71-2.14-1.6-2.82l-60.44-46.01c-1.01-.77-2.3-1.03-3.54-.71l-19.85,5.22c-.86,.23-1.65,.74-2.2,1.45l-72.37,92.62c-.06,.08-.12,.16-.18,.25l-27.67,41.37c-.87,1.31-.93,2.97-.15,4.34,.74,1.29,2.09,2.07,3.56,2.07,.08,0,.16,0,.25,0,22.18-1.29,98.27-7.88,146.18-38.27,16.63-10.55,28.05-22.81,33.94-36.44,4.76-11,4.43-19.78,4.07-23.05Zm-186.96,95.1c-.57-.98-.53-2.13,.1-3.08l27.67-41.37c.04-.06,.08-.12,.13-.18l72.37-92.61c.39-.5,.94-.86,1.56-1.03l19.85-5.22c.88-.23,1.79-.05,2.51,.5l60.44,46.01c.63,.48,1.04,1.22,1.13,2,.35,3.17,.67,11.7-3.98,22.44-5.8,13.4-17.06,25.49-33.49,35.9-47.66,30.24-123.5,36.8-145.61,38.09-1.13,.06-2.14-.48-2.7-1.46Z"/></g><g><path class="j" d="M337.35,275.05c-15.2,9.6-32.99,14.47-52.88,14.47-21.18,0-44.67-5.43-69.81-16.13-20.96-8.92-37.91-19.4-46.15-24.86-.89-.59-1.32-1.57-1.17-2.62,.16-1.06,.86-1.87,1.89-2.17l159.4-47.36c.25-.08,.51-.11,.76-.11,.51,0,1,.14,1.43,.41,1.78,1.11,5.14,3.35,7.69,5.84,7.21,7.04,12.37,15.22,15.32,24.32,4.9,15.11,1.84,36.65-16.48,48.22Z"/><path d="M354.97,226.46c-2.87-8.84-7.85-17.22-15.62-24.8-2.6-2.54-5.97-4.79-7.89-6-.63-.39-1.34-.59-2.06-.59-.37,0-.74,.05-1.1,.16l-159.4,47.37c-3.15,.93-3.78,5.12-1.04,6.94,17.59,11.64,67.11,41.19,116.62,41.19,18.39,0,36.77-4.07,53.51-14.65,18.8-11.88,22.04-34.02,16.98-49.6Zm-186.45,22.07c-.89-.59-1.32-1.57-1.17-2.62,.16-1.06,.86-1.87,1.89-2.17l159.4-47.36c.25-.08,.51-.11,.76-.11,.51,0,1,.14,1.43,.41,1.78,1.11,5.14,3.35,7.69,5.84,7.21,7.04,12.37,15.22,15.32,24.32,4.9,15.11,1.84,36.65-16.48,48.22-15.2,9.6-32.99,14.47-52.88,14.47-21.18,0-44.67-5.43-69.81-16.13-20.96-8.92-37.91-19.4-46.15-24.86Z"/></g><g><path d="M429.28,225.44l-2.46-17.63-24.57,12.43s-4.18-5.68-16.1-14.74c-11.11-8.45-20.79-14.33-23.85-16.33-7-4.59-19.09-6.68-22.22-6.79-3.12-.12-8.79-4.39-8.79-4.39l-17.22,21.97s19.99,1.62,34.37,14.84c10.02,9.22,15.83,14.51,23.95,21.31,7.18,6.01,17.65,15.08,23.68,20.31,1.27,1.1,2.83,1.65,4.4,1.65,1.74,0,3.47-.67,4.78-2l20.88-21.13c2.48-2.51,3.64-6.02,3.16-9.51Zm-28.81,31.44c-1.33,0-2.61-.48-3.61-1.35-5.73-4.98-16.43-14.24-23.7-20.33-8.22-6.89-14.15-12.3-23.9-21.28-7.6-6.98-16.72-10.73-23.04-12.64-4.24-1.29-7.77-1.94-9.89-2.25l15.2-19.4c1.85,1.29,5.83,3.85,8.52,3.95,3.37,.12,15.11,2.34,21.6,6.59,.52,.34,1.22,.79,2.1,1.35,4.36,2.77,12.48,7.94,21.68,14.93,11.6,8.82,15.82,14.44,15.86,14.5l.6,.81,.9-.46,23.08-11.67,2.23,15.96c.43,3.1-.62,6.28-2.82,8.51l-20.88,21.13c-1.04,1.06-2.44,1.64-3.93,1.64Z"/><path class="d" d="M425.28,234.11l-20.88,21.13c-1.04,1.06-2.44,1.64-3.93,1.64-1.33,0-2.61-.48-3.61-1.35-5.73-4.98-16.43-14.24-23.7-20.33-8.22-6.89-14.15-12.3-23.9-21.28-7.6-6.98-16.72-10.73-23.04-12.64-4.24-1.29-7.77-1.94-9.89-2.25l15.2-19.4c1.85,1.29,5.83,3.85,8.52,3.95,3.37,.12,15.11,2.34,21.6,6.59,.52,.34,1.22,.79,2.1,1.35,4.36,2.77,12.48,7.94,21.68,14.93,11.6,8.82,15.82,14.44,15.86,14.5l.6,.81,.9-.46,23.08-11.67,2.23,15.96c.43,3.1-.62,6.28-2.82,8.51Z"/></g><g><path class="d" d="M438.39,201.46c-3.16,7.83-7.07,12.9-9.13,15.22-.88,1-1.94,1.8-3.14,2.37l-19.78,9.47c-1.32,.63-2.79,.96-4.26,.96-1.89,0-3.73-.54-5.31-1.56-11.69-7.5-40.03-25.74-50.68-33.23-5.45-3.84-10.87-7.92-14.46-10.67-2.47-1.89-3.91-4.87-3.85-7.98,.16-9.08,1.63-26.61,9.72-41.97,9.95-18.91,26.67-28.5,49.66-28.5,20.8,0,36.1,7.97,45.45,23.68,6.16,10.34,9.73,24,10.61,40.61,.61,11.48-1.02,22.11-4.85,31.58Z"/><path d="M444.44,169.81c-1.2-22.52-8.45-65.42-57.26-65.42-54.8,0-60.27,53.81-60.58,71.64-.06,3.5,1.54,6.82,4.32,8.95,3.6,2.75,9.03,6.85,14.5,10.7,10.66,7.51,39,25.75,50.72,33.27,1.81,1.16,3.88,1.75,5.96,1.75,1.63,0,3.26-.36,4.77-1.08l19.78-9.47c1.34-.64,2.54-1.55,3.52-2.66,4.43-5.02,15.71-20.59,14.28-47.66Zm-42.35,59.68c-1.89,0-3.73-.54-5.31-1.56-11.69-7.5-40.03-25.74-50.68-33.23-5.45-3.84-10.87-7.92-14.46-10.67-2.47-1.89-3.91-4.87-3.85-7.98,.16-9.08,1.63-26.61,9.72-41.97,9.95-18.91,26.67-28.5,49.66-28.5,20.8,0,36.1,7.97,45.45,23.68,6.16,10.34,9.73,24,10.61,40.61,.61,11.48-1.02,22.11-4.85,31.58-3.16,7.83-7.07,12.9-9.13,15.22-.88,1-1.94,1.8-3.14,2.37l-19.78,9.47c-1.32,.63-2.79,.96-4.26,.96Z"/></g><path class="e" d="M357,155.1c10.28-5.84,41.33-21.79,69.26-18.86,.79,.08,1.55,.34,2.24,.74,4.14,2.39,17.67,12.08,12.71,34.33-4.52,20.3-17.71,32.61-23.38,37.09-1.58,1.25-3.7,1.59-5.59,.89-11.3-4.17-51.44-20.73-58.01-47.84-.6-2.49,.54-5.08,2.78-6.35Z"/><path d="M419.27,137.08c2.65,0,5.25,.15,7.72,.45,.84,.42,5.02,2.68,8.58,7.42,2.31,3.08,3.92,6.59,4.78,10.45,1.08,4.85,.98,10.27-.31,16.11-4.13,18.77-15.5,30.64-21.92,36.04-1.2,1.01-2.72,1.57-4.28,1.57-.8,0-1.59-.15-2.35-.44-12.48-4.79-53.16-22.51-56.74-50.62,2.17-1.33,9.77-5.85,20.08-10.32,11.22-4.87,28.04-10.67,44.43-10.67h0Zm0-1.2c-32.15,0-65.78,21.57-65.78,21.57,3.01,29.12,44.26,47.23,57.58,52.35,.9,.35,1.84,.52,2.78,.52,1.82,0,3.61-.64,5.05-1.85,6.11-5.15,18.06-17.33,22.31-36.7,5.82-26.49-13.88-35.4-13.88-35.4-2.66-.33-5.36-.48-8.07-.48h0Z"/><g><path d="M443.89,135.55c-1.45-7.76-6.29-26.65-20.61-40.06-.68-.64-1.57-.98-2.49-.98-.26,0-.52,.03-.78,.09-6.06,1.33-25.84,6.88-44.47,25.41-16.45,16.37-29.05,33.21-33.6,39.53-1.06,1.48-.88,3.52,.44,4.78l1.02,.97c.7,.67,1.61,1.01,2.52,1.01,.72,0,1.44-.21,2.07-.64,8.2-5.64,35.16-23.82,51.09-30.28,13.93-5.64,23.44-7.94,27.51-8.77,.24-.05,.48-.07,.72-.07,1.13,0,2.22,.53,2.91,1.46,3.61,4.81,12.79,18.64,11.5,33.42l2.36-19.43c.26-2.14,.2-4.3-.2-6.42Zm-12.7-8.28c-.91-1.21-2.36-1.94-3.87-1.94-.32,0-.65,.03-.96,.1-4.42,.9-13.91,3.23-27.73,8.83-16.07,6.52-43.34,24.92-51.32,30.4-.41,.28-.89,.43-1.39,.43-.63,0-1.24-.24-1.7-.68l-1.02-.97c-.88-.84-1.01-2.22-.29-3.22,4.62-6.43,17.14-23.13,33.47-39.38,18.49-18.4,38.26-23.86,43.88-25.09,.17-.04,.35-.06,.52-.06,.63,0,1.22,.24,1.67,.66,14.11,13.21,18.86,31.95,20.25,39.4,.37,1.99,.43,4.03,.19,6.06l-.93,7.67c-2.34-10.04-7.91-18.4-10.78-22.23Z"/><path class="d" d="M442.9,141.83l-.93,7.67c-2.34-10.04-7.91-18.4-10.78-22.23-.91-1.21-2.36-1.94-3.87-1.94-.32,0-.65,.03-.96,.1-4.42,.9-13.91,3.23-27.73,8.83-16.07,6.52-43.34,24.92-51.32,30.4-.41,.28-.89,.43-1.39,.43-.63,0-1.24-.24-1.7-.68l-1.02-.97c-.88-.84-1.01-2.22-.29-3.22,4.62-6.43,17.14-23.13,33.47-39.38,18.49-18.4,38.26-23.86,43.88-25.09,.17-.04,.35-.06,.52-.06,.63,0,1.22,.24,1.67,.66,14.11,13.21,18.86,31.95,20.25,39.4,.37,1.99,.43,4.03,.19,6.06Z"/></g><circle cx="347.79" cy="160.4" r="1.49"/><rect x="383.69" y="119.95" width="3.86" height="17.46" transform="translate(-18.1 81.05) rotate(-11.73)"/><rect x="393.03" y="114.58" width="3.86" height="17.46" transform="translate(-16.82 82.84) rotate(-11.73)"/><rect x="401.64" y="108.39" width="4.29" height="20.94" transform="translate(-15.73 84.54) rotate(-11.73)"/><rect x="411.81" y="103.72" width="4.29" height="22.25" transform="translate(-14.7 86.52) rotate(-11.73)"/><path d="M382.4,143.79s28.86-17.46,46.42-17.59c0,0,16.87,18.68,12.91,35.21,0,0-1.19-16.66-13.23-24.43-1.98-1.28-11.43-.91-14.55-.91-6.23,0-31.55,7.72-31.55,7.72Z"/><polygon class="f" points="440.5 156.26 483.28 159.78 432.85 179.88 440.5 156.26"/><path class="i" d="M428.34,189.27c1.38-1.09,54.93-29.48,54.93-29.48l-50.43,20.1-3.6,6.25-.9,3.13Z"/><path d="M424.05,164.75h-3.31c-.23-4.42-3.89-7.94-8.37-7.94s-8.14,3.52-8.37,7.94h-3.31c0-6.45,5.23-11.67,11.67-11.67s11.68,5.23,11.68,11.67Z"/></g><g><path class="h" d="M144.76,548.66c1.08,1.76,1.61,5.26,1.61,10.49s-1.08,9.66-3.23,13.28c-1.96,2.84-6.11,6.77-12.47,11.81-6.36,5.04-11.05,7.55-14.08,7.55-5.38,0-11.54-2.81-18.48-8.43-6.94-5.62-11.35-11.81-13.2-18.56l16.28-11.15c1.56,4.6,4.06,8.8,7.48,12.62,3.42,3.81,5.84,5.72,7.26,5.72s2.93-.46,4.55-1.39c1.61-.93,2.86-1.88,3.74-2.86,1.27-1.56,1.91-4.01,1.91-7.33s-.78-5.38-2.35-6.16c-1.96-1.66-5.75-3.86-11.37-6.6-5.62-2.74-10.83-5.7-15.62-8.87-4.79-3.18-7.85-6.28-9.17-9.31-1.32-3.03-1.98-6.97-1.98-11.81s1.08-9.07,3.23-12.69c1.96-2.84,6.11-6.77,12.47-11.81,6.36-5.04,11.05-7.55,14.08-7.55,5.38,0,11.54,2.81,18.48,8.43,6.94,5.63,11.34,11.81,13.2,18.56l-16.28,11.3c-1.57-4.6-4.06-8.82-7.48-12.69-3.42-3.86-5.84-5.79-7.26-5.79s-2.96,.44-4.62,1.32c-1.66,.88-3.01,1.98-4.03,3.3-1.03,1.32-1.54,3.57-1.54,6.75s.98,5.31,2.93,6.38c1.56,1.37,5.13,3.52,10.71,6.45,14.28,7.82,22.69,14.18,25.23,19.07Z"/><path class="h" d="M209.3,550.27v5.28h-35.5c0,5.87,.73,10.51,2.2,13.93,.49,1.17,1.37,2.37,2.64,3.59,1.27,1.22,2.59,1.83,3.96,1.83s3.08-1.17,5.13-3.52c2.05-2.35,3.67-5.18,4.84-8.51l15.11,10.71c-2.64,4.89-6.67,9.15-12.1,12.76-5.43,3.62-9.8,5.43-13.13,5.43s-8.14-2.59-14.45-7.77c-6.31-5.18-10.15-9.22-11.51-12.1-1.37-2.88-2.05-10.02-2.05-21.42s.68-18.53,2.05-21.42c1.37-2.88,5.21-6.92,11.51-12.1,6.31-5.18,10.93-7.77,13.86-7.77s7.55,2.59,13.86,7.77c6.31,5.18,10.14,9.22,11.52,12.1,1.37,2.89,2.05,9.95,2.05,21.2Zm-20.32-18.41c-.73-1.32-1.86-2.62-3.37-3.89-1.52-1.27-2.93-1.91-4.25-1.91s-2.81,1.3-4.47,3.89c-1.66,2.59-2.69,6.48-3.08,11.66h16.72c-.29-5.18-.81-8.43-1.54-9.76Z"/><path class="h" d="M244.06,590.02h-19.36v-50.61c0-4.99-.59-8.85-1.76-11.59-1.17-2.74-3.03-5.13-5.57-7.19l16.14-11.29c3.62,2.93,6.31,6.31,8.07,10.12,7.24-6.84,12.34-10.27,15.33-10.27s7.48,2.71,13.5,8.14c6.01,5.43,9.02,10.78,9.02,16.06v28.31c0,4.99,.59,8.85,1.76,11.59,1.17,2.74,3.03,5.13,5.57,7.19l-16.14,11.29c-7.04-5.57-10.56-13.49-10.56-23.76v-32.56c0-1.66-.88-3.4-2.64-5.21-1.76-1.81-3.4-2.71-4.91-2.71s-4.33,2.05-8.43,6.16v56.33Z"/><path class="h" d="M317.84,526.36v32.42c0,4.6,1.56,8.8,4.69,12.62,3.13,3.81,7.43,6.85,12.91,9.09l-16.14,11.29c-5.87-2.74-10.81-6.53-14.82-11.37-4.01-4.84-6.01-9.95-6.01-15.33v-38.73h-7.33v-11l7.33-1.76c-.2-4.79-.78-8.58-1.76-11.37-.98-2.79-2.84-5.5-5.57-8.14l16.14-11.29c7.04,5.57,10.56,13.49,10.56,23.76v4.4h16.43v15.4h-16.43Z"/><path class="h" d="M355.03,480.3c1.03,0,3.4,1.59,7.11,4.77,3.72,3.18,5.57,5.33,5.57,6.45s-1.88,3.3-5.65,6.53c-3.77,3.23-6.16,4.84-7.19,4.84s-3.4-1.59-7.11-4.77c-3.72-3.18-5.57-5.33-5.57-6.45s1.88-3.3,5.65-6.53c3.76-3.23,6.16-4.84,7.19-4.84Zm-10.05,30.66h19.36v50.75c0,4.99,.59,8.85,1.76,11.59,1.17,2.74,3.03,5.13,5.57,7.19l-16.14,11.29c-7.04-5.57-10.56-13.49-10.56-23.76v-57.06Z"/><path class="h" d="M400.57,590.02h-19.36v-50.61c0-4.99-.59-8.85-1.76-11.59-1.17-2.74-3.03-5.13-5.57-7.19l16.14-11.29c3.62,2.93,6.31,6.31,8.07,10.12,7.24-6.84,12.34-10.27,15.33-10.27s7.48,2.71,13.5,8.14c6.01,5.43,9.02,10.78,9.02,16.06v28.31c0,4.99,.59,8.85,1.76,11.59,1.17,2.74,3.03,5.13,5.57,7.19l-16.14,11.29c-7.04-5.57-10.56-13.49-10.56-23.76v-32.56c0-1.66-.88-3.4-2.64-5.21-1.76-1.81-3.4-2.71-4.91-2.71s-4.33,2.05-8.43,6.16v56.33Z"/><path class="h" d="M504.72,550.27v5.28h-35.5c0,5.87,.73,10.51,2.2,13.93,.49,1.17,1.37,2.37,2.64,3.59,1.27,1.22,2.59,1.83,3.96,1.83s3.08-1.17,5.13-3.52c2.05-2.35,3.67-5.18,4.84-8.51l15.11,10.71c-2.64,4.89-6.67,9.15-12.1,12.76-5.43,3.62-9.8,5.43-13.13,5.43s-8.14-2.59-14.45-7.77c-6.31-5.18-10.15-9.22-11.51-12.1-1.37-2.88-2.05-10.02-2.05-21.42s.68-18.53,2.05-21.42c1.37-2.88,5.21-6.92,11.51-12.1,6.31-5.18,10.93-7.77,13.86-7.77s7.55,2.59,13.86,7.77c6.31,5.18,10.14,9.22,11.52,12.1,1.37,2.89,2.05,9.95,2.05,21.2Zm-20.32-18.41c-.73-1.32-1.86-2.62-3.37-3.89-1.52-1.27-2.93-1.91-4.25-1.91s-2.81,1.3-4.47,3.89c-1.66,2.59-2.69,6.48-3.08,11.66h16.72c-.29-5.18-.81-8.43-1.54-9.76Z"/><path class="h" d="M515.72,480.01h19.36v81.7c0,4.99,.59,8.85,1.76,11.59,1.17,2.74,3.03,5.13,5.57,7.19l-16.14,11.29c-7.04-5.57-10.56-13.49-10.56-23.76v-88.01Z"/></g></g></svg>