<?xml version="1.0" encoding="utf-8"?>
<svg viewBox="58.265 66.304 1085.788 296.688" xmlns="http://www.w3.org/2000/svg">
  <defs>
    <linearGradient id="linear-gradient" x1="198.25" y1="387.89" x2="424.54" y2="213.95" gradientUnits="userSpaceOnUse">
      <stop offset="0" stop-color="#92c83e"/>
      <stop offset="1" stop-color="#1ba8e0"/>
    </linearGradient>
  </defs>
  <path class="cls-1" d="M455,298.63a6.21,6.21,0,0,1-5-2.58L320.56,116,221,254.47a6.21,6.21,0,0,1-5,2.58H185.05a6.21,6.21,0,1,1,0-12.41h27.73l102.75-142.9a6.21,6.21,0,0,1,5-2.59h0a6.25,6.25,0,0,1,5,2.59L460,288.81a6.19,6.19,0,0,1-5,9.82ZM366,208.12a6.21,6.21,0,0,0-6.21-6.21H280.49a6.21,6.21,0,0,0,0,12.42h79.34A6.21,6.21,0,0,0,366,208.12Zm-22.88-42.74a6.21,6.21,0,0,0-6.2-6.2H303.37a6.21,6.21,0,1,0,0,12.41H337A6.21,6.21,0,0,0,343.16,165.38Zm57.56,85.47a6.21,6.21,0,0,0-6.21-6.21H359.1a6.21,6.21,0,0,0,0,12.41h35.41A6.2,6.2,0,0,0,400.72,250.85Zm-63.65,0a6.21,6.21,0,0,0-6.21-6.21H248.72a6.21,6.21,0,1,0,0,12.41h82.14A6.2,6.2,0,0,0,337.07,250.85Zm84.7,42.79a6.21,6.21,0,0,0-6.2-6.21H261.87a6.21,6.21,0,0,0,0,12.41h153.7A6.21,6.21,0,0,0,421.77,293.64Zm-183,0a6.21,6.21,0,0,0-6.2-6.21h-47.5a6.21,6.21,0,1,0,0,12.41h47.5A6.21,6.21,0,0,0,238.75,293.64Zm222.41,42.65a6.22,6.22,0,0,0-6.22-6.21H287a6.21,6.21,0,1,0,0,12.41h167.9A6.21,6.21,0,0,0,461.16,336.29Zm-200.77,0a6.21,6.21,0,0,0-6.21-6.21H185.05a6.21,6.21,0,1,0,0,12.41h69.13A6.2,6.2,0,0,0,260.39,336.29Zm200.77,42.78a6.21,6.21,0,0,0-6.21-6.21H185.05a6.21,6.21,0,1,0,0,12.41H455A6.2,6.2,0,0,0,461.16,379.07Z" style="fill: url(#linear-gradient);" transform="matrix(1, 0, 0, 1, -120.305428, -32.845512)"/>
  <path class="cls-2" d="M 612.728 303.945 L 612.728 338.97 L 509.249 338.97 L 509.249 166.87 L 550.093 166.87 L 550.093 303.945 Z" style="fill: rgb(19, 26, 43);" transform="matrix(1, 0, 0, 1, -120.305428, -32.845512)"/>
  <path class="cls-2" d="M 672.189 333.796 C 662.204 328.126 654.113 319.635 648.938 309.389 C 638.482 287.502 638.482 262.064 648.938 240.177 C 654.113 229.927 662.204 221.435 672.189 215.766 C 695.807 203.802 723.714 203.802 747.331 215.766 C 757.294 221.424 765.353 229.921 770.474 240.177 C 780.746 262.101 780.746 287.461 770.474 309.389 C 765.353 319.643 757.294 328.138 747.331 333.796 C 723.701 345.721 695.816 345.721 672.189 333.796 Z M 730.193 300.308 C 734.792 294.416 737.099 285.867 737.118 274.661 C 737.137 263.453 734.829 254.984 730.193 249.254 C 725.562 243.346 718.79 240.39 709.881 240.39 C 700.971 240.39 694.085 243.346 689.217 249.254 C 684.528 255.163 682.185 263.635 682.185 274.661 C 682.185 285.687 684.528 294.239 689.217 300.308 C 693.906 306.202 700.793 309.155 709.881 309.172 C 718.966 309.19 725.741 306.236 730.193 300.308 Z" style="fill: rgb(19, 26, 43);" transform="matrix(1, 0, 0, 1, -120.305428, -32.845512)"/>
  <path class="cls-2" d="M 938.424 146.876 L 938.424 338.889 L 898.926 338.889 L 898.926 330.483 C 889.125 338.331 876.971 342.649 864.416 342.739 C 853.75 342.953 843.217 340.33 833.891 335.143 C 824.777 329.784 817.497 321.791 813.012 312.216 C 802.882 288.278 802.882 261.255 813.012 237.319 C 817.5 227.755 824.78 219.769 833.891 214.42 C 843.211 209.215 853.743 206.582 864.416 206.795 C 876.969 206.9 889.121 211.217 898.926 219.052 L 898.926 146.876 Z M 898.926 298.503 L 898.926 251.061 C 891.509 245.283 882.437 242.027 873.037 241.764 C 864.289 241.764 857.673 244.557 853.182 250.144 C 848.691 255.726 846.465 263.902 846.499 274.661 C 846.499 285.437 848.736 293.816 853.182 299.393 C 857.628 304.968 864.281 307.798 873.037 307.798 C 882.437 307.537 891.509 304.278 898.926 298.503 Z" style="fill: rgb(19, 26, 43);" transform="matrix(1, 0, 0, 1, -120.305428, -32.845512)"/>
  <path class="cls-2" d="M 1105.46 210.38 L 1105.46 338.376 C 1105.619 348.595 1103.238 358.696 1098.535 367.77 C 1093.896 376.478 1086.795 383.629 1078.113 388.326 C 1068.152 393.536 1057.025 396.115 1045.785 395.815 C 1034.936 395.893 1024.091 395.28 1013.32 393.983 C 1004.332 392.873 995.502 390.739 986.999 387.625 L 986.999 351.361 C 994.801 354.638 1002.929 357.079 1011.245 358.636 C 1018.499 360.052 1025.868 360.813 1033.257 360.9 C 1044.599 360.9 1052.896 358.797 1058.096 354.542 C 1063.465 349.999 1066.373 343.185 1065.936 336.167 L 1065.936 325.956 C 1056.129 333.795 1043.977 338.109 1031.425 338.213 C 1013.462 338.213 999.094 332.88 988.317 322.211 C 977.541 311.543 972.255 294.919 972.45 272.344 C 972.065 259.875 974.67 247.498 980.047 236.243 C 984.627 226.94 991.9 219.233 1000.927 214.121 C 1010.3 209.081 1020.813 206.538 1031.45 206.74 C 1044.003 206.847 1056.157 211.162 1065.963 218.999 L 1065.963 210.38 Z M 1065.963 293.897 L 1065.963 251.061 C 1058.554 245.286 1049.493 242.033 1040.099 241.764 C 1031.317 241.764 1024.69 244.37 1020.218 249.579 C 1015.744 254.784 1013.502 262.375 1013.482 272.344 C 1013.482 283.694 1015.637 291.679 1019.948 296.294 C 1024.259 300.909 1030.96 303.217 1040.045 303.217 C 1049.457 302.951 1058.539 299.686 1065.963 293.897 Z" style="fill: rgb(19, 26, 43);" transform="matrix(1, 0, 0, 1, -120.305428, -32.845512)"/>
  <path class="cls-2" d="M 1193.394 303.945 C 1198.623 308.004 1206.299 310.041 1216.432 310.06 C 1222.138 310.095 1227.829 309.369 1233.35 307.906 C 1239.743 306.078 1245.937 303.602 1251.83 300.524 L 1262.043 330.94 C 1254.732 335.119 1246.856 338.213 1238.657 340.128 C 1229.561 342.039 1220.283 342.942 1210.988 342.82 C 1197.724 343.218 1184.577 340.29 1172.732 334.307 C 1162.514 328.942 1154.175 320.599 1148.808 310.385 C 1137.832 287.438 1137.911 260.74 1149.025 237.858 C 1154.182 228.108 1162.064 220.069 1171.707 214.715 C 1181.534 209.417 1192.553 206.719 1203.716 206.875 C 1222.627 206.875 1237.455 212.363 1248.195 223.337 C 1258.936 234.311 1264.324 250.312 1264.359 271.348 L 1264.359 287 L 1183.212 287 C 1184.51 293.669 1188.115 299.671 1193.394 303.945 Z M 1190.431 243.57 C 1187.038 246.282 1184.661 250.97 1183.292 257.633 L 1222.788 257.633 C 1222.683 252.491 1220.699 247.564 1217.213 243.784 C 1213.433 240.689 1208.613 239.149 1203.741 239.475 C 1198.965 239.264 1194.264 240.708 1190.431 243.57 Z" style="fill: rgb(19, 26, 43);" transform="matrix(1, 0, 0, 1, -120.305428, -32.845512)"/>
</svg>