<?xml version="1.0" encoding="utf-8"?>
<svg viewBox="156.909 266.997 485.832 333.198" xmlns="http://www.w3.org/2000/svg" xmlns:xlink="http://www.w3.org/1999/xlink">
  <defs>
    <symbol id="b" overflow="visible"/>
  </defs>
  <g transform="matrix(0.694045, 0, 0, 0.694045, 156.910889, 232.332809)" style="">
    <path d="m6.5273 508.88 215.54-175.01-222.07-204.02v356.02c0 8.4062 2.3867 16.281 6.5273 23.008z" style="fill: rgb(156, 163, 175);"/>
    <path d="m478.21 333.6 215.46 174.95c4.0117-6.6562 6.3281-14.402 6.3281-22.68v-356.02z" style="fill: rgb(156, 163, 175);"/>
    <path d="m655.82 49.945h-611.66c-30.285 0-45.727 33.711-23.773 53.93l309.95 284.77c11.414 10.484 27.914 10.484 39.328 0 103.39-94.988 206.46-189.65 309.96-284.77 21.988-20.199 6.5078-53.93-23.793-53.93z" style="fill: rgb(156, 163, 175);"/>
    <path d="m666.38 528.75-212.64-172.66-61.789 56.758c-24.102 22.152-59.801 22.152-83.922 0l-61.496-56.5-212.48 172.51c3.2617 0.76562 6.6367 1.168 10.102 1.168h611.66c3.6445 0 7.1836-0.4375 10.555-1.2773z" style="fill: rgb(156, 163, 175);"/>
    <use transform="matrix(1, 0, 0, 1, 101.19921875, 557.37890625)" style="fill: rgb(156, 163, 175);" xlink:href="#b"/>
    <use transform="matrix(1, 0, 0, 1, 8.460938453674316, 566.49609375)" style="fill: rgb(156, 163, 175);" xlink:href="#b"/>
    <use transform="matrix(1, 0, 0, 1, 55.23046875, 566.49609375)" style="fill: rgb(156, 163, 175);" xlink:href="#b"/>
    <use transform="matrix(1, 0, 0, 1, 88.82421875, 566.49609375)" style="fill: rgb(156, 163, 175);" xlink:href="#b"/>
  </g>
</svg>