<?xml version="1.0" encoding="utf-8"?>
<svg viewBox="56.667 88.761 369.602 313.602" xmlns="http://www.w3.org/2000/svg" xmlns:xlink="http://www.w3.org/1999/xlink">
  <defs>
    <symbol id="w" overflow="visible"/>
    <symbol id="d" overflow="visible"/>
    <symbol id="c" overflow="visible"/>
  </defs>
  <g transform="matrix(1, 0, 0, 1, -108.532242, -34.437546)">
    <path d="m518 156.8h-336c-6.0039 0-11.547-3.2031-14.551-8.4023-3-5.1953-3-11.602 0-16.797 3.0039-5.1992 8.5469-8.4023 14.551-8.4023h336c6.0039 0 11.547 3.2031 14.551 8.4023 3 5.1953 3 11.602 0 16.797-3.0039 5.1992-8.5469 8.4023-14.551 8.4023z" style="fill: rgb(156, 163, 175);"/>
    <path d="m518 296.8h-336c-6.0039 0-11.547-3.2031-14.551-8.4023-3-5.1953-3-11.602 0-16.797 3.0039-5.1992 8.5469-8.4023 14.551-8.4023h336c6.0039 0 11.547 3.2031 14.551 8.4023 3 5.1953 3 11.602 0 16.797-3.0039 5.1992-8.5469 8.4023-14.551 8.4023z" style="fill: rgb(156, 163, 175);"/>
    <path d="m518 436.8h-336c-6.0039 0-11.547-3.2031-14.551-8.4023-3-5.1953-3-11.602 0-16.797 3.0039-5.1992 8.5469-8.4023 14.551-8.4023h336c6.0039 0 11.547 3.2031 14.551 8.4023 3 5.1953 3 11.602 0 16.797-3.0039 5.1992-8.5469 8.4023-14.551 8.4023z" style="fill: rgb(156, 163, 175);"/>
    <use transform="matrix(1, 0, 0, 1, 70, 644)" style="fill: rgb(156, 163, 175);" xlink:href="#w"/>
    <use transform="matrix(1, 0, 0, 1, 123.34765625, 644)" style="fill: rgb(156, 163, 175);" xlink:href="#d"/>
    <use transform="matrix(1, 0, 0, 1, 142.2421875, 644)" style="fill: rgb(156, 163, 175);" xlink:href="#c"/>
    <use transform="matrix(1, 0, 0, 1, 283.390625, 644)" style="fill: rgb(156, 163, 175);" xlink:href="#d"/>
    <use transform="matrix(1, 0, 0, 1, 377.15234375, 644)" style="fill: rgb(156, 163, 175);" xlink:href="#d"/>
    <use transform="matrix(1, 0, 0, 1, 154.15234375, 672)" style="fill: rgb(156, 163, 175);" xlink:href="#c"/>
    <use transform="matrix(1, 0, 0, 1, 407.2421875, 672)" style="fill: rgb(156, 163, 175);" xlink:href="#c"/>
  </g>
</svg>