<?xml version="1.0" encoding="utf-8"?>
<svg viewBox="110.354 -75.564 487.604 487.61" xmlns="http://www.w3.org/2000/svg">
  <path d="M 247.343 5.792 C 113.962 5.792 5.63 114.133 5.63 247.504 C 5.63 380.875 113.971 489.216 247.343 489.216 C 274.085 489.216 299.814 484.851 323.871 476.812 L 318.033 457.559 C 313.477 459.09 308.858 460.479 304.174 461.717 C 308.027 457.672 311.727 453.235 315.276 448.46 L 307.716 423.519 C 292.779 448.402 275.245 463.667 257.409 467.867 L 257.409 368.684 C 269.103 368.931 280.548 369.624 291.705 370.691 L 285.396 349.883 C 276.228 349.18 266.893 348.723 257.409 348.535 L 257.409 257.572 L 347.939 257.572 C 347.754 266.821 347.279 275.919 346.568 284.84 L 366.3 290.873 C 367.259 280.008 367.868 268.892 368.093 257.572 L 468.679 257.572 C 467.727 278.869 463.773 299.374 457.244 318.687 L 476.486 324.572 C 484.642 300.359 489.065 274.439 489.065 247.498 C 489.065 114.118 380.724 5.786 247.352 5.786 Z M 257.41 27.143 C 278.917 32.211 299.988 53.344 316.59 88.057 C 321.382 98.081 325.748 109.135 329.593 121.06 C 307.118 125.262 282.818 127.815 257.41 128.353 Z M 237.267 27.143 L 237.267 128.351 C 211.861 127.813 187.559 125.256 165.084 121.055 C 168.93 109.129 173.294 98.075 178.087 88.054 C 194.688 53.346 215.759 32.212 237.267 27.14 Z M 190.498 33.292 C 178.861 45.511 168.585 61.239 159.918 79.363 C 154.429 90.839 149.524 103.391 145.268 116.826 C 122.847 111.4 102.705 104.285 85.675 95.922 C 113.635 66.11 149.756 44.056 190.506 33.295 Z M 304.19 33.292 C 344.935 44.052 381.053 66.107 409.01 95.918 C 391.981 104.281 371.838 111.4 349.421 116.824 C 345.162 103.389 340.26 90.84 334.771 79.361 C 326.104 61.239 315.829 45.508 304.186 33.289 Z M 72.211 111.686 C 91.625 121.79 114.423 130.13 139.717 136.313 C 131.939 166.828 127.32 201.091 126.598 237.437 L 26.013 237.437 C 28.124 190.127 45.025 146.708 72.216 111.682 Z M 422.487 111.686 C 449.674 146.711 466.574 190.131 468.686 237.441 L 368.1 237.441 C 367.378 201.088 362.76 166.826 354.981 136.307 C 380.271 130.128 403.069 121.784 422.484 111.68 Z M 159.46 140.586 C 183.745 145.223 209.913 147.962 237.273 148.502 L 237.273 237.439 L 146.743 237.439 C 147.479 202.426 152.04 169.509 159.459 140.587 Z M 335.228 140.586 C 342.648 169.509 347.208 202.426 347.945 237.438 L 257.415 237.438 L 257.415 148.501 C 284.773 147.96 310.942 145.222 335.228 140.585 Z M 26.014 257.574 L 126.6 257.574 C 127.336 294.688 132.132 329.626 140.207 360.621 C 115.212 366.694 92.634 374.876 73.344 384.776 C 45.488 349.501 28.15 305.537 26.009 257.572 Z M 146.744 257.574 L 237.274 257.574 L 237.274 348.542 C 210.108 349.079 184.11 351.785 159.965 356.364 C 152.248 326.977 147.5 293.371 146.742 257.571 Z M 237.274 368.691 L 237.274 467.866 C 215.768 462.794 194.696 441.664 178.094 406.955 C 173.559 397.475 169.417 387.056 165.723 375.866 C 188.02 371.734 212.106 369.224 237.274 368.69 Z M 145.871 380.073 C 149.989 392.799 154.693 404.704 159.925 415.641 C 168.596 433.771 178.871 449.502 190.514 461.721 C 150.402 451.127 114.761 429.598 86.985 400.487 C 103.891 392.324 123.783 385.374 145.87 380.069 Z M 282.521 282.683 L 334.204 451.532 L 369.178 416.573 L 446.001 493.396 L 493.234 446.163 L 416.411 369.34 L 451.385 334.366 Z" style="fill: rgb(156, 163, 175);" transform="matrix(1, 0, 0, 1, 104.723778, -81.349518)"/>
</svg>