<?xml version="1.0" encoding="utf-8"?>
<svg viewBox="48.352 77.415 383.901 383.9" xmlns="http://www.w3.org/2000/svg">
  <path d="M 401.552 77.415 L 81.152 77.415 C 63.652 77.415 48.352 90.015 48.352 107.315 L 48.352 428.415 C 48.352 445.815 63.652 461.315 81.152 461.315 L 401.452 461.315 C 419.052 461.315 432.252 445.715 432.252 428.415 L 432.252 107.315 C 432.352 90.015 419.052 77.415 401.552 77.415 Z M 167.352 397.415 L 112.352 397.415 L 112.352 226.415 L 167.352 226.415 L 167.352 397.415 Z M 141.752 200.415 L 141.352 200.415 C 123.752 200.415 112.352 187.315 112.352 170.915 C 112.352 154.215 124.052 141.415 142.052 141.415 C 160.052 141.415 171.052 154.115 171.452 170.915 C 171.452 187.315 160.052 200.415 141.752 200.415 Z M 368.352 397.415 L 313.352 397.415 L 313.352 303.915 C 313.352 281.515 305.352 266.215 285.452 266.215 C 270.252 266.215 261.252 276.515 257.252 286.515 C 255.752 290.115 255.352 295.015 255.352 300.015 L 255.352 397.415 L 200.352 397.415 L 200.352 226.415 L 255.352 226.415 L 255.352 250.215 C 263.352 238.815 275.852 222.415 304.952 222.415 C 341.052 222.415 368.352 246.215 368.352 297.515 L 368.352 397.415 Z" style="fill: rgb(156, 163, 175);"/>
</svg>